<svg width="164" height="164" viewBox="0 0 164 164" fill="none" xmlns="http://www.w3.org/2000/svg">
<path d="M135.372 33.4429H144.353V29.6479H135.372V33.4429Z" fill="#DBDBDB"/>
<path d="M140.381 28.6606H149.361V24.8657H140.381V28.6606Z" fill="#EBEBEB"/>
<path d="M14.6351 27.8799H23.6157V24.0849H14.6351V27.8799Z" fill="#DBDBDB"/>
<path d="M19.6439 98.4229H28.6245V94.6279H19.6439V98.4229Z" fill="#EBEBEB"/>
<path d="M63.7991 15.252L72.7798 15.252V11.457H63.7991V15.252Z" fill="#EBEBEB"/>
<path d="M24.6492 131.292H33.6299V127.497H24.6492V131.292Z" fill="#DBDBDB"/>
<path d="M14.6351 93.6372H23.6157V89.8423H14.6351V93.6372Z" fill="#EBEBEB"/>
<path d="M128.779 145.527H137.76V141.732H128.779V145.527Z" fill="#87C159"/>
<path d="M128.779 136.008H137.76V132.213H128.779V136.008Z" fill="#EBEBEB"/>
<path d="M123.774 140.745H132.754V136.95H123.774V140.745Z" fill="#87C159"/>
<path d="M133.781 140.745H142.762V136.95H133.781V140.745Z" fill="#DBDBDB"/>
<path d="M138 102.795H146.98V99H138V102.795Z" fill="#DBDBDB"/>
<path d="M19.6439 136.008H28.6245V132.213H19.6439V136.008Z" fill="#EBEBEB"/>
<path d="M24.6492 140.745H33.6299V136.95H24.6492V140.745Z" fill="#EBEBEB"/>
<path d="M138.783 145.527H147.764V141.732H138.783V145.527Z" fill="#EBEBEB"/>
<path d="M143.133 98.4229H152.113V94.6279H143.133V98.4229Z" fill="#EBEBEB"/>
<path d="M146.977 25.21C146.846 25.8121 146.587 26.379 146.217 26.872C145.848 27.365 145.376 27.7725 144.835 28.0668C144.835 28.0668 144.864 26.6072 145.311 26.0693C145.757 25.5314 146.977 25.21 146.977 25.21Z" fill="#EBEBEB"/>
<path d="M111.175 33.6069H52.8242V123.482H111.175V33.6069Z" fill="white"/>
<path d="M113.16 125.45H50.8564V31.6421H113.16V125.45ZM54.8088 121.514H109.224V35.5781H54.7924L54.8088 121.514Z" fill="#37474F"/>
<path d="M111.175 67.5977H52.8242V69.5853H111.175V67.5977Z" fill="#37474F"/>
<path d="M111.175 52.7788H52.8242V54.7665H111.175V52.7788Z" fill="#37474F"/>
<path d="M95.2021 37.3722V68.1846H97.0061V37.3722H95.2021Z" fill="#37474F"/>
<path d="M81.0981 37.3722V68.1846H82.9021V37.3722H81.0981Z" fill="#37474F"/>
<path d="M66.9941 37.3722V68.1846H68.7981V37.3722H66.9941Z" fill="#37474F"/>
<path d="M114.829 31.311H49.1704V38.5074H114.829V31.311Z" fill="#37474F"/>
<path d="M114.829 31.311H49.1704V36.3294H114.829V31.311Z" fill="#263238"/>
<path d="M117.313 27.7129H46.6909V34.9092H117.313V27.7129Z" fill="#37474F"/>
<path d="M50.8564 38.5107H21.6841V125.45H50.8564V38.5107Z" fill="#DBDBDB"/>
<path d="M48.2716 41.4233H24.2686V43.024H48.2716V41.4233Z" fill="#C7C7C7"/>
<path d="M48.2716 44.3687H24.2686V45.9693H48.2716V44.3687Z" fill="#C7C7C7"/>
<path d="M48.2716 47.314H24.2686V48.9146H48.2716V47.314Z" fill="#C7C7C7"/>
<path d="M48.2716 50.2563H24.2686V51.857H48.2716V50.2563Z" fill="#C7C7C7"/>
<path d="M48.2716 53.2017H24.2686V54.8023H48.2716V53.2017Z" fill="#C7C7C7"/>
<path d="M48.2716 56.147H24.2686V57.7476H48.2716V56.147Z" fill="#C7C7C7"/>
<path d="M48.2716 59.0928H24.2686V60.6934H48.2716V59.0928Z" fill="#C7C7C7"/>
<path d="M48.2716 62.0381H24.2686V63.6387H48.2716V62.0381Z" fill="#C7C7C7"/>
<path d="M48.2716 64.9834H24.2686V66.584H48.2716V64.9834Z" fill="#C7C7C7"/>
<path d="M48.2716 67.9292H24.2686V69.5298H48.2716V67.9292Z" fill="#C7C7C7"/>
<path d="M48.2716 70.8711H24.2686V72.4717H48.2716V70.8711Z" fill="#C7C7C7"/>
<path d="M48.2716 73.8164H24.2686V75.417H48.2716V73.8164Z" fill="#C7C7C7"/>
<path d="M48.2716 79.7075H24.2686V81.3082H48.2716V79.7075Z" fill="#C7C7C7"/>
<path d="M48.2716 82.6528H24.2686V84.2535H48.2716V82.6528Z" fill="#C7C7C7"/>
<path d="M48.2716 85.5981H24.2686V87.1988H48.2716V85.5981Z" fill="#C7C7C7"/>
<path d="M48.2716 88.5439H24.2686V90.1446H48.2716V88.5439Z" fill="#C7C7C7"/>
<path d="M48.2716 91.4858H24.2686V93.0865H48.2716V91.4858Z" fill="#C7C7C7"/>
<path d="M48.2716 94.4312H24.2686V96.0318H48.2716V94.4312Z" fill="#C7C7C7"/>
<path d="M48.2716 97.377H24.2686V98.9776H48.2716V97.377Z" fill="#C7C7C7"/>
<path d="M48.2716 100.322H24.2686V101.923H48.2716V100.322Z" fill="#C7C7C7"/>
<path d="M48.2716 103.268H24.2686V104.868H48.2716V103.268Z" fill="#C7C7C7"/>
<path d="M48.2716 106.213H24.2686V107.814H48.2716V106.213Z" fill="#C7C7C7"/>
<path d="M48.2716 109.159H24.2686V110.759H48.2716V109.159Z" fill="#C7C7C7"/>
<path d="M48.2716 112.104H24.2686V113.705H48.2716V112.104Z" fill="#C7C7C7"/>
<path d="M48.2716 115.046H24.2686V116.647H48.2716V115.046Z" fill="#C7C7C7"/>
<path d="M48.2716 117.992H24.2686V119.592H48.2716V117.992Z" fill="#C7C7C7"/>
<path d="M48.2716 120.937H24.2686V122.538H48.2716V120.937Z" fill="#C7C7C7"/>
<path d="M142.316 38.5107H113.144V125.45H142.316V38.5107Z" fill="#DBDBDB"/>
<path d="M139.731 41.4233H115.728V43.024H139.731V41.4233Z" fill="#C7C7C7"/>
<path d="M139.731 44.3687H115.728V45.9693H139.731V44.3687Z" fill="#C7C7C7"/>
<path d="M139.731 47.314H115.728V48.9146H139.731V47.314Z" fill="#C7C7C7"/>
<path d="M139.731 50.2563H115.728V51.857H139.731V50.2563Z" fill="#C7C7C7"/>
<path d="M139.731 53.2017H115.728V54.8023H139.731V53.2017Z" fill="#C7C7C7"/>
<path d="M139.731 56.147H115.728V57.7476H139.731V56.147Z" fill="#C7C7C7"/>
<path d="M139.731 59.0928H115.728V60.6934H139.731V59.0928Z" fill="#C7C7C7"/>
<path d="M139.731 62.0381H115.728V63.6387H139.731V62.0381Z" fill="#C7C7C7"/>
<path d="M139.731 64.9834H115.728V66.584H139.731V64.9834Z" fill="#C7C7C7"/>
<path d="M139.731 67.9292H115.728V69.5298H139.731V67.9292Z" fill="#C7C7C7"/>
<path d="M139.731 70.8711H115.728V72.4717H139.731V70.8711Z" fill="#C7C7C7"/>
<path d="M139.731 73.8164H115.728V75.417H139.731V73.8164Z" fill="#C7C7C7"/>
<path d="M139.731 79.7075H115.728V81.3082H139.731V79.7075Z" fill="#C7C7C7"/>
<path d="M139.731 82.6528H115.728V84.2535H139.731V82.6528Z" fill="#C7C7C7"/>
<path d="M139.731 85.5981H115.728V87.1988H139.731V85.5981Z" fill="#C7C7C7"/>
<path d="M139.731 88.5439H115.728V90.1446H139.731V88.5439Z" fill="#C7C7C7"/>
<path d="M139.731 91.4858H115.728V93.0865H139.731V91.4858Z" fill="#C7C7C7"/>
<path d="M139.731 94.4312H115.728V96.0318H139.731V94.4312Z" fill="#C7C7C7"/>
<path d="M139.731 97.377H115.728V98.9776H139.731V97.377Z" fill="#C7C7C7"/>
<path d="M139.731 100.322H115.728V101.923H139.731V100.322Z" fill="#C7C7C7"/>
<path d="M139.731 103.268H115.728V104.868H139.731V103.268Z" fill="#C7C7C7"/>
<path d="M139.731 106.213H115.728V107.814H139.731V106.213Z" fill="#C7C7C7"/>
<path d="M139.731 109.159H115.728V110.759H139.731V109.159Z" fill="#C7C7C7"/>
<path d="M139.731 112.104H115.728V113.705H139.731V112.104Z" fill="#C7C7C7"/>
<path d="M139.731 115.046H115.728V116.647H139.731V115.046Z" fill="#C7C7C7"/>
<path d="M139.731 117.992H115.728V119.592H139.731V117.992Z" fill="#C7C7C7"/>
<path d="M139.731 120.937H115.728V122.538H139.731V120.937Z" fill="#C7C7C7"/>
<path d="M88.4028 80.7568C88.2257 86.5592 88.9866 93.5488 86.1068 98.8493C83.8534 102.995 79.5894 105.577 75.2631 107.112C65.7511 110.487 52.8181 110.034 47.0551 100.407C44.7591 96.5599 44.8969 88.9273 49.3773 86.464C51.6733 85.2078 54.2974 85.0766 56.8426 84.5944C60.1817 83.9647 62.681 82.2984 64.4227 79.3792C67.8306 73.672 67.5715 69.2834 68.6244 62.9104C68.8245 61.7296 69.1918 60.5783 70.4448 59.6632C71.5762 58.7059 72.9472 58.0754 74.4103 57.8395C75.6737 57.4013 77.0257 57.2819 78.3463 57.4918C81.1638 58.0035 83.6927 60.8341 85.7657 62.6316C87.8386 64.429 88.757 66.2592 88.7177 69.0636C88.6947 72.9636 88.5209 76.8602 88.4028 80.7568Z" fill="#263238"/>
<path d="M88.9111 83.5384C88.734 78.2051 88.4486 72.8882 88.1993 67.5615C88.1993 67.5287 88.1501 67.5254 88.1501 67.5615C88.2256 71.9501 88.2453 76.3355 88.3797 80.7241C88.5109 85.0242 88.9406 89.4358 88.7077 93.7359C88.1567 103.382 77.9526 106.551 69.7952 105.455C69.4246 105.406 69.3885 106.003 69.7657 106.039C76.9555 106.777 85.7393 104.97 88.5109 97.3045C90.0165 93.1094 89.0587 87.9041 88.9111 83.5384Z" fill="#263238"/>
<path d="M69.1525 62.4417C69.1487 62.4231 69.1387 62.4065 69.124 62.3945C69.1094 62.3825 69.0911 62.376 69.0721 62.376C69.0532 62.376 69.0349 62.3825 69.0202 62.3945C69.0056 62.4065 68.9955 62.4231 68.9918 62.4417C68.3358 67.7225 68.0898 73.9217 64.7278 78.3234C63.0651 80.476 60.7912 82.0765 58.2039 82.9154C56.1539 83.5714 54.0383 83.4829 51.9259 83.7354C43.6735 84.7194 42.7419 95.691 48.3442 100.424C48.459 100.522 48.6361 100.326 48.5213 100.217C44.6148 96.5865 43.6997 90.4561 47.4291 86.2905C50.4204 82.9482 55.5635 84.4734 59.4207 82.84C67.4141 79.455 68.7294 70.1464 69.1525 62.4417Z" fill="#263238"/>
<path d="M70.0018 84.9521C61.4312 93.6409 50.6498 111.92 52.6572 115.623C54.8974 119.753 66.8334 107.571 66.7874 106.859C66.7514 106.321 70.953 95.2185 74.1379 87.1432C77.3228 79.0678 72.124 82.7906 70.0018 84.9521Z" fill="#F7A9A0"/>
<path d="M66.8661 106.859C67.2335 105.672 72.9473 91.0332 74.5807 86.4019C76.2141 81.7705 74.6988 80.3404 70.0346 84.5814C65.3705 88.8225 55.1434 102.986 52.8113 110.493C50.5613 117.736 54.2906 117.736 59.2106 114.397C63.2385 111.678 66.8661 106.859 66.8661 106.859Z" fill="#4650DA"/>
<path d="M75.194 83.9025C75.194 83.9878 75.1776 84.0731 75.1644 84.1649C75.1369 84.2045 75.1 84.2369 75.0572 84.2592C75.0144 84.2814 74.9667 84.293 74.9184 84.2928C74.865 84.2927 74.8126 84.2779 74.767 84.2501C74.7214 84.2222 74.6843 84.1824 74.6598 84.1349C74.6352 84.0874 74.6242 84.0341 74.6279 83.9808C74.6316 83.9275 74.6498 83.8762 74.6806 83.8326C74.7115 83.7889 74.7537 83.7545 74.8027 83.7332C74.8517 83.7119 74.9056 83.7044 74.9585 83.7117C75.0115 83.7189 75.0614 83.7405 75.103 83.7741C75.1445 83.8078 75.176 83.8522 75.194 83.9025ZM65.4688 90.0295C65.4101 90.0289 65.3526 90.0457 65.3035 90.0779C65.2545 90.1101 65.2162 90.1562 65.1934 90.2103C65.1707 90.2643 65.1645 90.324 65.1758 90.3815C65.1871 90.4391 65.2153 90.492 65.2568 90.5335C65.2982 90.5749 65.3511 90.6031 65.4087 90.6144C65.4663 90.6257 65.5259 90.6196 65.58 90.5968C65.6341 90.5741 65.6801 90.5357 65.7123 90.4867C65.7445 90.4376 65.7613 90.3801 65.7607 90.3215C65.7607 90.244 65.7299 90.1698 65.6752 90.115C65.6204 90.0603 65.5462 90.0295 65.4688 90.0295ZM70.192 90.0295C70.1334 90.0295 70.0762 90.0469 70.0276 90.0795C69.979 90.1121 69.9412 90.1584 69.9189 90.2125C69.8967 90.2667 69.891 90.3262 69.9027 90.3836C69.9144 90.4409 69.9428 90.4935 69.9844 90.5346C70.026 90.5758 70.0789 90.6036 70.1364 90.6147C70.1939 90.6257 70.2533 90.6194 70.3072 90.5965C70.3611 90.5737 70.407 90.5353 70.439 90.4864C70.4711 90.4374 70.4878 90.38 70.4872 90.3215C70.4872 90.2828 70.4795 90.2446 70.4646 90.209C70.4498 90.1734 70.428 90.141 70.4005 90.1139C70.3731 90.0867 70.3405 90.0653 70.3047 90.0508C70.2689 90.0363 70.2306 90.0291 70.192 90.0295ZM67.8304 87.0021C67.7718 87.0021 67.7146 87.0195 67.666 87.0521C67.6174 87.0847 67.5796 87.131 67.5573 87.1851C67.5351 87.2392 67.5294 87.2988 67.5411 87.3561C67.5528 87.4135 67.5812 87.4661 67.6228 87.5072C67.6644 87.5484 67.7173 87.5762 67.7748 87.5872C67.8323 87.5982 67.8917 87.5919 67.9456 87.5691C67.9995 87.5462 68.0454 87.5079 68.0774 87.4589C68.1095 87.4099 68.1262 87.3525 68.1256 87.294C68.1256 87.2554 68.1179 87.2172 68.103 87.1815C68.0882 87.1459 68.0664 87.1136 68.0389 87.0864C68.0115 87.0593 67.9789 87.0378 67.9431 87.0234C67.9073 87.0089 67.869 87.0017 67.8304 87.0021ZM72.5568 87.0021C72.4982 87.0015 72.4407 87.0183 72.3916 87.0505C72.3426 87.0827 72.3042 87.1287 72.2815 87.1828C72.2587 87.2369 72.2526 87.2965 72.2639 87.3541C72.2752 87.4116 72.3034 87.4645 72.3448 87.506C72.3863 87.5475 72.4392 87.5757 72.4968 87.587C72.5544 87.5983 72.614 87.5921 72.6681 87.5694C72.7221 87.5466 72.7682 87.5083 72.8004 87.4592C72.8326 87.4102 72.8494 87.3527 72.8488 87.294C72.8488 87.2166 72.818 87.1424 72.7633 87.0876C72.7085 87.0329 72.6343 87.0021 72.5568 87.0021ZM60.7488 96.3501C60.6902 96.3495 60.6327 96.3663 60.5836 96.3985C60.5346 96.4307 60.4962 96.4767 60.4735 96.5308C60.4507 96.5849 60.4446 96.6445 60.4559 96.7021C60.4672 96.7596 60.4954 96.8125 60.5368 96.854C60.5783 96.8955 60.6312 96.9237 60.6888 96.935C60.7464 96.9463 60.806 96.9401 60.8601 96.9174C60.9141 96.8946 60.9602 96.8563 60.9924 96.8072C61.0246 96.7582 61.0414 96.7007 61.0408 96.642C61.0408 96.6034 61.0331 96.5652 61.0182 96.5295C61.0034 96.4939 60.9816 96.4616 60.9541 96.4344C60.9267 96.4073 60.8941 96.3858 60.8583 96.3714C60.8225 96.3569 60.7842 96.3497 60.7456 96.3501H60.7488ZM65.472 96.3501C65.4134 96.3495 65.3559 96.3663 65.3068 96.3985C65.2578 96.4307 65.2194 96.4767 65.1967 96.5308C65.1739 96.5849 65.1678 96.6445 65.1791 96.7021C65.1904 96.7596 65.2186 96.8125 65.26 96.854C65.3015 96.8955 65.3544 96.9237 65.412 96.935C65.4696 96.9463 65.5292 96.9401 65.5833 96.9174C65.6373 96.8946 65.6834 96.8563 65.7156 96.8072C65.7478 96.7582 65.7646 96.7007 65.764 96.642C65.764 96.6034 65.7563 96.5652 65.7414 96.5295C65.7266 96.4939 65.7048 96.4616 65.6773 96.4344C65.6499 96.4073 65.6173 96.3858 65.5815 96.3714C65.5457 96.3569 65.5074 96.3497 65.4688 96.3501H65.472ZM70.1952 96.3501C70.1367 96.3501 70.0795 96.3675 70.0309 96.4001C69.9823 96.4327 69.9445 96.479 69.9222 96.5331C69.9 96.5872 69.8943 96.6468 69.906 96.7041C69.9176 96.7615 69.9461 96.8141 69.9877 96.8552C70.0293 96.8964 70.0822 96.9242 70.1397 96.9352C70.1972 96.9462 70.2566 96.9399 70.3105 96.9171C70.3644 96.8942 70.4103 96.8559 70.4423 96.8069C70.4743 96.7579 70.4911 96.7005 70.4904 96.642C70.4905 96.6031 70.4827 96.5646 70.4676 96.5288C70.4525 96.4929 70.4304 96.4604 70.4026 96.4333C70.3748 96.4061 70.3419 96.3847 70.3057 96.3704C70.2695 96.3561 70.2309 96.3492 70.192 96.3501H70.1952ZM63.1104 93.3227C63.0518 93.322 62.9943 93.3389 62.9452 93.371C62.8962 93.4032 62.8578 93.4493 62.8351 93.5034C62.8123 93.5574 62.8062 93.6171 62.8175 93.6746C62.8288 93.7322 62.857 93.7851 62.8984 93.8266C62.9399 93.8681 62.9928 93.8962 63.0504 93.9075C63.108 93.9188 63.1676 93.9127 63.2217 93.8899C63.2757 93.8672 63.3218 93.8288 63.354 93.7798C63.3862 93.7308 63.403 93.6732 63.4024 93.6146C63.4024 93.576 63.3947 93.5377 63.3798 93.5021C63.365 93.4665 63.3432 93.4341 63.3157 93.407C63.2883 93.3798 63.2557 93.3584 63.2199 93.3439C63.1841 93.3295 63.1458 93.3222 63.1072 93.3227H63.1104ZM67.8336 93.3227C67.7751 93.3227 67.7179 93.3401 67.6693 93.3726C67.6207 93.4052 67.5829 93.4515 67.5606 93.5057C67.5384 93.5598 67.5327 93.6193 67.5444 93.6767C67.556 93.734 67.5845 93.7866 67.6261 93.8278C67.6677 93.8689 67.7206 93.8968 67.7781 93.9078C67.8356 93.9188 67.895 93.9125 67.9489 93.8896C68.0028 93.8668 68.0487 93.8284 68.0807 93.7795C68.1127 93.7305 68.1295 93.6731 68.1288 93.6146C68.1289 93.5757 68.1211 93.5372 68.106 93.5013C68.0909 93.4655 68.0688 93.433 68.041 93.4058C68.0132 93.3786 67.9803 93.3572 67.9441 93.343C67.9079 93.3287 67.8693 93.3218 67.8304 93.3227H67.8336ZM60.7456 102.664C60.6869 102.663 60.6294 102.68 60.5803 102.712C60.5313 102.745 60.493 102.791 60.4702 102.845C60.4475 102.899 60.4413 102.959 60.4526 103.016C60.4639 103.074 60.4921 103.127 60.5336 103.168C60.575 103.21 60.6279 103.238 60.6855 103.249C60.7431 103.26 60.8027 103.254 60.8568 103.231C60.9109 103.209 60.9569 103.17 60.9891 103.121C61.0213 103.072 61.0381 103.015 61.0375 102.956C61.0375 102.879 61.0067 102.804 60.952 102.75C60.8972 102.695 60.823 102.664 60.7456 102.664ZM65.4688 102.664C65.4101 102.663 65.3526 102.68 65.3035 102.712C65.2545 102.745 65.2162 102.791 65.1934 102.845C65.1707 102.899 65.1645 102.959 65.1758 103.016C65.1871 103.074 65.2153 103.127 65.2568 103.168C65.2982 103.21 65.3511 103.238 65.4087 103.249C65.4663 103.26 65.5259 103.254 65.58 103.231C65.6341 103.209 65.6801 103.17 65.7123 103.121C65.7445 103.072 65.7613 103.015 65.7607 102.956C65.7607 102.879 65.7299 102.804 65.6752 102.75C65.6204 102.695 65.5462 102.664 65.4688 102.664ZM58.384 99.6432C58.3254 99.6432 58.2682 99.6606 58.2196 99.6932C58.171 99.7258 58.1332 99.7721 58.1109 99.8262C58.0887 99.8804 58.083 99.9399 58.0947 99.9972C58.1064 100.055 58.1348 100.107 58.1764 100.148C58.218 100.189 58.2709 100.217 58.3284 100.228C58.3859 100.239 58.4453 100.233 58.4992 100.21C58.5531 100.187 58.599 100.149 58.631 100.1C58.6631 100.051 58.6798 99.9937 58.6792 99.9351C58.6792 99.8965 58.6715 99.8583 58.6566 99.8227C58.6418 99.787 58.62 99.7547 58.5925 99.7276C58.5651 99.7004 58.5325 99.679 58.4967 99.6645C58.4609 99.65 58.4226 99.6428 58.384 99.6432ZM63.1104 99.6432C63.0518 99.6426 62.9943 99.6594 62.9452 99.6916C62.8962 99.7238 62.8578 99.7699 62.8351 99.8239C62.8123 99.878 62.8062 99.9376 62.8175 99.9952C62.8288 100.053 62.857 100.106 62.8984 100.147C62.9399 100.189 62.9928 100.217 63.0504 100.228C63.108 100.239 63.1676 100.233 63.2217 100.211C63.2757 100.188 63.3218 100.149 63.354 100.1C63.3862 100.051 63.403 99.9938 63.4024 99.9351C63.4024 99.8965 63.3947 99.8583 63.3798 99.8227C63.365 99.787 63.3432 99.7547 63.3157 99.7276C63.2883 99.7004 63.2557 99.679 63.2199 99.6645C63.1841 99.65 63.1458 99.6428 63.1072 99.6432H63.1104ZM67.8336 99.6432C67.7751 99.6432 67.7179 99.6606 67.6693 99.6932C67.6207 99.7258 67.5829 99.7721 67.5606 99.8262C67.5384 99.8804 67.5327 99.9399 67.5444 99.9972C67.556 100.055 67.5845 100.107 67.6261 100.148C67.6677 100.189 67.7206 100.217 67.7781 100.228C67.8356 100.239 67.895 100.233 67.9489 100.21C68.0028 100.187 68.0487 100.149 68.0807 100.1C68.1127 100.051 68.1295 99.9937 68.1288 99.9351C68.1289 99.8962 68.1211 99.8577 68.106 99.8219C68.0909 99.786 68.0688 99.7536 68.041 99.7264C68.0132 99.6992 67.9803 99.6778 67.9441 99.6635C67.9079 99.6493 67.8693 99.6424 67.8304 99.6432H67.8336ZM56.0256 108.991C55.9681 108.992 55.9119 109.01 55.8644 109.042C55.8168 109.074 55.7799 109.12 55.7583 109.174C55.7367 109.227 55.7314 109.286 55.743 109.342C55.7547 109.398 55.7827 109.45 55.8237 109.491C55.8646 109.531 55.9166 109.559 55.9732 109.57C56.0297 109.581 56.0882 109.575 56.1414 109.553C56.1945 109.53 56.2399 109.493 56.2719 109.445C56.3038 109.397 56.3208 109.341 56.3208 109.283C56.3209 109.244 56.313 109.205 56.2977 109.169C56.2824 109.133 56.2601 109.1 56.2319 109.073C56.2037 109.046 56.1704 109.025 56.1338 109.011C56.0973 108.996 56.0582 108.99 56.0191 108.991H56.0256ZM60.7521 108.991C60.6944 108.991 60.6379 109.008 60.5899 109.04C60.5419 109.072 60.5045 109.118 60.4824 109.171C60.4603 109.225 60.4546 109.283 60.4658 109.34C60.4771 109.397 60.5049 109.449 60.5457 109.49C60.5865 109.53 60.6385 109.558 60.6952 109.569C60.7518 109.581 60.8105 109.575 60.8638 109.553C60.9172 109.531 60.9628 109.493 60.9948 109.445C61.0269 109.397 61.044 109.341 61.044 109.283C61.0441 109.244 61.0363 109.206 61.0212 109.17C61.0061 109.134 60.984 109.102 60.9562 109.074C60.9284 109.047 60.8955 109.026 60.8593 109.012C60.8231 108.997 60.7844 108.99 60.7456 108.991H60.7521ZM58.384 105.964C58.3254 105.964 58.2682 105.981 58.2196 106.014C58.171 106.046 58.1332 106.093 58.1109 106.147C58.0887 106.201 58.083 106.26 58.0947 106.318C58.1064 106.375 58.1348 106.428 58.1764 106.469C58.218 106.51 58.2709 106.538 58.3284 106.549C58.3859 106.56 58.4453 106.554 58.4992 106.531C58.5531 106.508 58.599 106.47 58.631 106.421C58.6631 106.372 58.6798 106.314 58.6792 106.256C58.6792 106.217 58.6715 106.179 58.6566 106.143C58.6418 106.108 58.62 106.075 58.5925 106.048C58.5651 106.021 58.5325 106 58.4967 105.985C58.4609 105.971 58.4226 105.963 58.384 105.964ZM63.1104 105.964C63.0518 105.963 62.9943 105.98 62.9452 106.012C62.8962 106.044 62.8578 106.09 62.8351 106.144C62.8123 106.199 62.8062 106.258 62.8175 106.316C62.8288 106.373 62.857 106.426 62.8984 106.468C62.9399 106.509 62.9928 106.537 63.0504 106.549C63.108 106.56 63.1676 106.554 63.2217 106.531C63.2757 106.508 63.3218 106.47 63.354 106.421C63.3862 106.372 63.403 106.314 63.4024 106.256C63.4024 106.217 63.3947 106.179 63.3798 106.143C63.365 106.108 63.3432 106.075 63.3157 106.048C63.2883 106.021 63.2557 106 63.2199 105.985C63.1841 105.971 63.1458 105.963 63.1072 105.964H63.1104ZM56.0224 115.312C55.9648 115.312 55.9087 115.33 55.8611 115.363C55.8135 115.395 55.7766 115.441 55.755 115.494C55.7334 115.548 55.7281 115.606 55.7397 115.663C55.7514 115.719 55.7794 115.771 55.8204 115.811C55.8613 115.852 55.9134 115.879 55.9699 115.89C56.0264 115.901 56.085 115.895 56.1381 115.873C56.1913 115.851 56.2367 115.813 56.2686 115.766C56.3005 115.718 56.3176 115.661 56.3176 115.604C56.3176 115.565 56.3098 115.526 56.2947 115.49C56.2797 115.455 56.2576 115.422 56.2298 115.395C56.202 115.368 56.169 115.346 56.1328 115.332C56.0966 115.318 56.058 115.311 56.0191 115.312H56.0224ZM53.6608 112.284C53.6021 112.284 53.5446 112.301 53.4955 112.333C53.4465 112.365 53.4082 112.411 53.3854 112.465C53.3627 112.519 53.3565 112.579 53.3678 112.636C53.3791 112.694 53.4073 112.747 53.4488 112.788C53.4902 112.83 53.5431 112.858 53.6007 112.869C53.6583 112.88 53.7179 112.874 53.772 112.852C53.8261 112.829 53.8721 112.791 53.9043 112.741C53.9365 112.692 53.9533 112.635 53.9527 112.576C53.9527 112.538 53.945 112.499 53.9302 112.464C53.9153 112.428 53.8935 112.396 53.866 112.369C53.8386 112.342 53.806 112.32 53.7702 112.306C53.7344 112.291 53.6961 112.284 53.6575 112.284H53.6608ZM58.384 112.284C58.3254 112.284 58.2682 112.302 58.2196 112.334C58.171 112.367 58.1332 112.413 58.1109 112.467C58.0887 112.521 58.083 112.581 58.0947 112.638C58.1064 112.696 58.1348 112.748 58.1764 112.789C58.218 112.831 58.2709 112.858 58.3284 112.869C58.3859 112.88 58.4453 112.874 58.4992 112.851C58.5531 112.828 58.599 112.79 58.631 112.741C58.6631 112.692 58.6798 112.635 58.6792 112.576C58.6792 112.538 58.6715 112.499 58.6566 112.464C58.6418 112.428 58.62 112.396 58.5925 112.369C58.5651 112.342 58.5325 112.32 58.4967 112.306C58.4609 112.291 58.4226 112.284 58.384 112.284Z" fill="#87C159"/>
<path d="M63.478 120.16L64.3341 115.026L65.5641 105.918C65.5641 105.918 62.6679 100.86 64.3472 97.2325C65.1967 95.3924 72.6391 83.9682 75.7682 81.6722C78.7202 79.5369 82.9842 81.8231 84.5651 83.4926C90.6856 89.9345 93.572 102.726 95.7696 120.15L63.478 120.16Z" fill="#F7A9A0"/>
<path d="M64.5504 113.416L65.5639 105.921C65.5639 105.921 62.6676 100.863 64.347 97.2324C65.1965 95.3924 72.6388 83.9681 75.768 81.6721C78.72 79.5401 82.984 81.823 84.5649 83.4958C89.8654 89.0718 92.742 99.4169 94.8444 113.406L64.5504 113.416Z" fill="#4650DA"/>
<path d="M77.1129 105.767C75.684 105.642 74.2478 105.623 72.8161 105.711C72.1076 105.764 71.4024 105.849 70.6972 105.951C70.3463 106 69.9953 106.039 69.6411 106.075C69.273 106.121 68.9006 106.121 68.5324 106.075C68.5285 106.074 68.5242 106.073 68.52 106.074C68.5158 106.074 68.5118 106.076 68.5083 106.078C68.5049 106.081 68.502 106.084 68.5001 106.088C68.4981 106.092 68.4971 106.096 68.4971 106.1C68.4971 106.104 68.4981 106.108 68.5001 106.112C68.502 106.116 68.5049 106.119 68.5083 106.121C68.5118 106.124 68.5158 106.125 68.52 106.126C68.5242 106.126 68.5285 106.126 68.5324 106.125C68.8749 106.203 69.2223 106.259 69.5722 106.292C69.9118 106.315 70.2526 106.315 70.5923 106.292C71.3139 106.246 72.0322 106.164 72.7538 106.111C74.2068 106 75.6599 105.892 77.1195 105.885C77.1351 105.884 77.1498 105.877 77.1603 105.865C77.1707 105.854 77.1761 105.838 77.1752 105.823C77.1744 105.807 77.1673 105.792 77.1556 105.782C77.1439 105.772 77.1286 105.766 77.1129 105.767Z" fill="#263238"/>
<path d="M80.3601 107.63C79.2236 107.302 78.0694 107.039 76.903 106.843C76.3191 106.744 75.7353 106.685 75.1449 106.636C74.8628 106.613 74.5807 106.597 74.2987 106.583C74.0166 106.57 73.6755 106.583 73.3639 106.583C73.3311 106.583 73.3212 106.629 73.3639 106.633C73.6558 106.662 73.9444 106.738 74.2331 106.784L75.1055 106.915C75.6894 107.003 76.2732 107.098 76.8571 107.184C78.0247 107.351 79.1891 107.528 80.3503 107.735C80.4126 107.738 80.4257 107.646 80.3601 107.63Z" fill="#263238"/>
<path d="M64.3342 115.026C64.4982 113.504 64.6622 111.979 64.8557 110.46C65.0493 108.942 65.2165 107.417 65.4199 105.898L65.4494 106.006C65.014 105.386 64.656 104.715 64.3834 104.009C64.1038 103.308 63.9015 102.579 63.7799 101.834C63.6619 101.087 63.6289 100.329 63.6815 99.5741C63.7666 98.8207 63.9542 98.0824 64.2391 97.3798C64.8061 96.0006 65.5105 94.6819 66.3416 93.4438C67.1527 92.1959 68.0377 90.9977 68.9918 89.8555C68.1095 91.0494 67.2829 92.2859 66.5089 93.5487C65.7286 94.7994 65.0601 96.1165 64.5113 97.4847C64.2416 98.1626 64.0672 98.8746 63.9931 99.6003C63.9521 100.329 63.9884 101.06 64.1013 101.782C64.2127 102.505 64.403 103.215 64.6688 103.897C64.9248 104.581 65.2641 105.231 65.679 105.832L65.7118 105.882V105.937C65.5085 107.456 65.269 108.968 65.0558 110.487C64.8426 112.005 64.5802 113.514 64.3342 115.026Z" fill="#263238"/>
<path d="M66.5088 93.4374C66.5261 93.2334 66.5668 93.032 66.6301 92.8372C66.69 92.643 66.7612 92.4524 66.8433 92.2665C66.9253 92.0828 67.0106 91.8991 67.109 91.722C67.207 91.5434 67.3166 91.3714 67.437 91.207C67.3124 91.5974 67.1517 91.9647 66.9942 92.3321C66.8368 92.6994 66.6629 93.0602 66.5088 93.4374Z" fill="#263238"/>
<path d="M39.9306 145.819H124.069L127.205 130.049H36.7949L39.9306 145.819Z" fill="#4650DA"/>
<path opacity="0.12" d="M36.7983 130.049L37.9201 135.687H126.08L127.202 130.049H36.7983Z" fill="black"/>
<path d="M35.2206 133.752H128.779V128.953H35.2206V133.752Z" fill="#4650DA"/>
<path d="M127.72 127.438C127.434 127.718 127.073 127.908 126.68 127.986C126.87 128.463 126.909 128.986 126.791 129.486C126.674 129.986 126.406 130.437 126.024 130.78C126.135 131.029 126.171 131.305 126.129 131.574C126.087 131.843 125.968 132.094 125.786 132.297C125.605 132.5 125.368 132.646 125.106 132.718C124.843 132.79 124.565 132.784 124.305 132.702C124.074 133.138 123.754 133.52 123.366 133.824C122.978 134.129 122.531 134.348 122.053 134.469C121.575 134.59 121.077 134.609 120.591 134.526C120.105 134.442 119.642 134.258 119.231 133.985C119.014 134.372 118.705 134.7 118.33 134.939C117.956 135.178 117.529 135.322 117.086 135.356C116.643 135.39 116.198 135.315 115.792 135.136C115.385 134.958 115.029 134.682 114.754 134.332C113.906 134.948 112.861 135.232 111.818 135.129C110.775 135.027 109.806 134.547 109.093 133.778C108.699 134.141 108.201 134.37 107.669 134.434C107.013 134.546 106.325 134.47 105.682 134.624C104.77 134.844 104.222 135.5 103.517 136.048C102.812 136.596 101.549 136.802 100.87 136.245C100.135 137.548 99.0905 138.651 97.8296 139.457C96.5686 140.262 95.1291 140.746 93.6375 140.866C91.0758 141.063 87.8844 139.839 87.2776 137.215C86.6301 137.774 85.8584 138.17 85.0267 138.37C84.1951 138.57 83.3277 138.569 82.4969 138.365C81.6661 138.162 80.8961 137.762 80.251 137.201C79.606 136.639 79.1047 135.931 78.7889 135.136C76.7783 135.976 74.174 136.537 72.8849 134.598C72.3438 135.223 71.5909 135.626 70.7707 135.73C69.9505 135.835 69.1207 135.632 68.4405 135.162C66.3938 137.33 62.7235 139.948 60.3028 137.081C58.2299 138.941 54.7695 140.167 52.9852 137.409C51.25 138.429 49.0492 139.347 47.1402 138.344C45.8807 137.688 45.0672 136.343 45.2739 134.969C44.7854 135.06 44.2807 135.007 43.8224 134.814C43.3641 134.622 42.9724 134.299 42.6958 133.886C41.8758 134.277 41.41 133.421 40.7639 132.873C39.5208 131.807 37.8775 132.584 36.5819 131.672C34.4827 130.2 36.2867 127.845 37.9693 127.08C37.8924 126.549 37.9484 126.006 38.1324 125.502C38.3163 124.997 38.6225 124.546 39.0234 124.188C39.4243 123.831 39.9076 123.579 40.43 123.454C40.9524 123.329 41.4976 123.335 42.0168 123.472C41.8948 122.645 42.027 121.799 42.396 121.048C42.765 120.297 43.3534 119.676 44.0832 119.267C46.3202 118.008 48.918 119.107 50.558 120.819C51.368 119.588 52.4866 118.591 53.8023 117.927C55.118 117.264 56.5847 116.957 58.056 117.037C59.8863 117.135 62.32 118.211 63.2056 119.917C63.8087 119.57 64.4597 119.315 65.1376 119.159C66.414 118.86 67.7481 118.92 68.993 119.33C70.2379 119.741 71.3452 120.488 72.1928 121.488C73.277 121.087 74.4501 120.991 75.5851 121.21C76.72 121.428 77.7735 121.953 78.6315 122.728C79.159 121.995 79.8596 121.404 80.6709 121.007C81.4822 120.611 82.379 120.421 83.2814 120.455C84.1838 120.489 85.0637 120.746 85.8428 121.203C86.6219 121.659 87.2759 122.301 87.7466 123.072C88.607 122.069 89.6851 121.276 90.8987 120.753C92.1122 120.23 93.4291 119.991 94.7491 120.054C96.069 120.118 97.357 120.481 98.515 121.118C99.6729 121.755 100.67 122.648 101.431 123.728C103.038 120.884 106.279 120.72 109.385 121.068C110.369 121.173 111.025 121.166 111.917 120.756C112.245 120.609 112.527 120.396 112.852 120.255C113.529 119.953 114.252 119.767 114.99 119.704C116.477 119.573 117.969 119.893 119.271 120.622C119.845 120.95 120.432 121.777 120.983 122.003C121.675 122.285 122.951 121.881 123.748 121.986C125.178 122.18 126.7 122.852 127.628 124.004C128.419 125.02 128.747 126.477 127.72 127.438Z" fill="#87C159"/>
<path d="M46.5107 126.103C47.1667 124.742 46.5107 122.308 44.7952 121.609C43.0798 120.911 40.7444 122.236 40.364 123.735C39.9835 125.234 41.6235 127.74 42.9683 127.92C44.4705 128.11 46.0252 127.103 46.5107 126.103Z" fill="#B7CFFF"/>
<path d="M39.6456 124.095C40.8625 125.138 42.8829 126.063 44.5361 125.995C43.8895 126.792 43.1545 127.514 42.345 128.146C42.2991 128.186 42.345 128.271 42.4073 128.235C44.3032 126.972 46.1695 124.689 46.2515 122.331C46.2515 122.298 46.2089 122.298 46.2056 122.331C46.1252 122.992 45.938 123.635 45.6513 124.236C44.9953 122.826 43.1388 121.767 41.7153 121.432C41.7061 121.429 41.6962 121.43 41.6875 121.434C41.6789 121.438 41.6724 121.446 41.6693 121.455C41.6663 121.464 41.667 121.474 41.6713 121.483C41.6756 121.491 41.6832 121.498 41.6923 121.501C42.1279 121.677 42.5538 121.876 42.9682 122.098C42.181 122.793 41.5873 124.148 41.7645 125.188C41.0462 124.867 40.3644 124.47 39.7309 124.004C39.6882 123.954 39.5898 124.049 39.6456 124.095ZM44.6082 125.913C43.9274 125.865 43.2557 125.729 42.6107 125.506C43.5852 125.561 44.5521 125.307 45.3725 124.778C45.1448 125.173 44.8894 125.553 44.6082 125.913ZM45.5922 124.345C45.5397 124.453 45.484 124.558 45.4249 124.673C44.7844 124.998 44.0916 125.208 43.3782 125.293C44.0558 124.867 44.5842 124.241 44.8903 123.502C45.1492 123.761 45.3842 124.043 45.5922 124.345ZM44.8509 123.453C44.59 123.913 44.2739 124.341 43.9096 124.725C43.7751 124.696 43.6439 124.656 43.5127 124.614C43.7246 124.455 43.8949 124.247 44.0091 124.009C44.1234 123.77 44.1781 123.507 44.1687 123.243C44.3524 123.266 44.5393 123.298 44.7296 123.338L44.8509 123.453ZM43.4537 123.203C43.5135 123.299 43.562 123.401 43.598 123.508C43.628 123.641 43.6401 123.776 43.6341 123.912C43.4156 123.943 43.1933 123.934 42.9781 123.885C43.028 123.659 43.1039 123.439 43.2044 123.229C43.2962 123.21 43.3717 123.207 43.4537 123.203ZM43.575 123.203C43.7581 123.203 43.9411 123.214 44.1228 123.236C44.0751 123.455 44.0048 123.668 43.9129 123.872L43.6603 123.908C43.6994 123.792 43.712 123.668 43.6973 123.546C43.6825 123.424 43.6408 123.307 43.575 123.203ZM43.8735 123.948C43.751 124.182 43.5865 124.393 43.3881 124.568C43.2684 124.52 43.1512 124.467 43.0371 124.407C42.9767 124.264 42.953 124.109 42.9682 123.954C43.1102 124.02 43.265 124.054 43.4216 124.053C43.5782 124.052 43.7325 124.016 43.8735 123.948ZM43.0207 122.121C43.5808 122.422 44.1046 122.786 44.582 123.207C43.8395 122.961 43.0312 123.008 42.3221 123.338C42.4975 122.902 42.7326 122.492 43.0207 122.121ZM42.2827 123.433C42.5596 123.328 42.8481 123.256 43.1421 123.22C43.0144 123.367 42.9252 123.544 42.8822 123.735C42.8393 123.925 42.8441 124.124 42.8961 124.312C42.6235 124.152 42.3814 123.946 42.181 123.702C42.2138 123.617 42.2499 123.528 42.2827 123.439V123.433ZM42.1318 123.846C42.3433 124.107 42.6049 124.323 42.9012 124.482C43.1975 124.64 43.5226 124.737 43.8571 124.768C43.6667 124.962 43.4592 125.139 43.2372 125.296C42.9485 125.335 42.6501 125.361 42.3352 125.391C42.1745 125.329 42.0072 125.266 41.853 125.197C41.903 124.741 41.9963 124.291 42.1318 123.853V123.846Z" fill="#4650DA"/>
<path d="M75.1745 125.594C75.8305 124.23 75.1745 121.799 73.459 121.097C71.7436 120.396 69.405 121.727 69.0245 123.223C68.644 124.719 70.2873 127.231 71.6485 127.405C73.1442 127.592 74.689 126.608 75.1745 125.594Z" fill="#B7CFFF"/>
<path d="M68.3091 123.587C69.526 124.627 71.5432 125.555 73.1996 125.486C72.553 126.284 71.818 127.006 71.0085 127.638C70.9626 127.677 71.0085 127.759 71.0709 127.726C72.9667 126.464 74.833 124.177 74.915 121.822C74.915 121.816 74.9126 121.811 74.9083 121.806C74.904 121.802 74.8982 121.799 74.8921 121.799C74.886 121.799 74.8801 121.802 74.8758 121.806C74.8715 121.811 74.8691 121.816 74.8691 121.822C74.7883 122.483 74.6011 123.127 74.3148 123.728C73.6588 122.318 71.8023 121.258 70.3788 120.924C70.3697 120.921 70.3597 120.921 70.3511 120.926C70.3425 120.93 70.3359 120.938 70.3329 120.947C70.3298 120.956 70.3305 120.966 70.3348 120.974C70.3391 120.983 70.3467 120.99 70.3558 120.993C70.7917 121.168 71.2177 121.367 71.6317 121.59C70.8445 122.285 70.2509 123.636 70.428 124.676C69.7092 124.358 69.0273 123.962 68.3944 123.495C68.3353 123.446 68.2533 123.538 68.3091 123.587ZM73.2652 125.404C72.5842 125.356 71.9125 125.218 71.2677 124.994C72.2414 125.054 73.2085 124.798 74.0261 124.266C73.8016 124.664 73.5472 125.045 73.2652 125.404ZM74.2492 123.836C74.1967 123.945 74.1409 124.05 74.0819 124.164C73.4413 124.49 72.7485 124.699 72.0352 124.784C72.7128 124.359 73.2412 123.733 73.5473 122.993C73.81 123.251 74.0473 123.533 74.2557 123.836H74.2492ZM73.5046 122.941C73.2468 123.404 72.9316 123.833 72.5665 124.217C72.4321 124.187 72.2995 124.148 72.1697 124.102C72.3815 123.943 72.5518 123.736 72.6661 123.497C72.7803 123.258 72.8351 122.996 72.8257 122.731C73.0093 122.753 73.1963 122.786 73.3865 122.829L73.5046 122.941ZM72.1106 122.695C72.1691 122.791 72.2174 122.894 72.2549 123C72.2851 123.132 72.2972 123.268 72.291 123.403C72.0724 123.433 71.8501 123.423 71.635 123.374C71.6859 123.148 71.7618 122.928 71.8613 122.718C71.9532 122.702 72.0352 122.695 72.1172 122.695H72.1106ZM72.232 122.695C72.415 122.696 72.5979 122.707 72.7797 122.728C72.7331 122.947 72.6616 123.161 72.5665 123.364C72.4845 123.364 72.3993 123.394 72.3173 123.403C72.3576 123.286 72.3715 123.162 72.3579 123.039C72.3443 122.916 72.3035 122.797 72.2385 122.692L72.232 122.695ZM72.5305 123.443C72.4071 123.677 72.2427 123.887 72.045 124.063C71.9253 124.015 71.8082 123.962 71.6941 123.902C71.6339 123.759 71.6103 123.604 71.6252 123.449C71.7682 123.516 71.9244 123.55 72.0822 123.548C72.24 123.546 72.3954 123.509 72.537 123.439L72.5305 123.443ZM71.6777 121.616C72.2376 121.916 72.7615 122.279 73.2389 122.698C72.496 122.454 71.6877 122.502 70.979 122.833C71.1562 122.395 71.3936 121.984 71.6842 121.613L71.6777 121.616ZM70.9397 122.928C71.2161 122.821 71.5048 122.749 71.799 122.715C71.6714 122.862 71.5821 123.039 71.5392 123.23C71.4963 123.42 71.501 123.619 71.553 123.807C71.2834 123.647 71.0446 123.441 70.8478 123.197L70.9397 122.928ZM70.7888 123.341C71.0008 123.602 71.2625 123.817 71.5587 123.975C71.8549 124.134 72.1797 124.231 72.5141 124.263C72.3228 124.456 72.1154 124.633 71.8941 124.791C71.6055 124.827 71.307 124.856 70.9921 124.883H70.9757C70.815 124.824 70.6477 124.761 70.4936 124.692C70.5504 124.234 70.6515 123.783 70.7953 123.344L70.7888 123.341Z" fill="#4650DA"/>
<path d="M97.0455 131.777C98.528 131.449 100.04 129.445 99.5448 127.668C99.0496 125.89 96.5633 124.85 95.1464 125.467C93.7294 126.083 92.7553 128.921 93.4441 130.095C94.2116 131.397 95.9598 132.007 97.0455 131.777Z" fill="#B7CFFF"/>
<path d="M94.4213 125.126C94.3459 126.723 94.8543 128.885 95.9203 130.151C94.8946 130.128 93.8747 129.991 92.8797 129.741C92.8174 129.741 92.7879 129.826 92.8469 129.846C95.0052 130.567 97.9539 130.639 99.8727 129.258C99.8756 129.254 99.8771 129.249 99.8769 129.243C99.8767 129.238 99.8748 129.233 99.8716 129.229C99.8684 129.224 99.864 129.221 99.8589 129.219C99.8538 129.218 99.8483 129.218 99.8432 129.219C99.2715 129.562 98.6478 129.809 97.9965 129.951C98.7181 128.576 98.4065 126.451 97.7997 125.122C97.7967 125.113 97.7901 125.106 97.7815 125.101C97.7729 125.097 97.763 125.096 97.7538 125.099C97.7447 125.102 97.7371 125.109 97.7328 125.118C97.7285 125.126 97.7278 125.136 97.7309 125.145C97.8653 125.597 97.9748 126.056 98.0589 126.52C97.0257 126.323 95.5956 126.687 94.8805 127.464C94.6887 126.701 94.5788 125.919 94.5525 125.132C94.5493 125.057 94.4246 125.05 94.4213 125.126ZM96.0253 130.154C95.6463 129.587 95.3431 128.973 95.1233 128.327C95.6746 129.131 96.4688 129.738 97.3897 130.059C96.9378 130.123 96.4818 130.155 96.0253 130.154ZM97.8719 129.974C97.7538 130 97.6357 130.019 97.5177 130.036C96.8674 129.73 96.2766 129.311 95.7727 128.799C96.5243 129.074 97.3426 129.108 98.1146 128.898C98.0675 129.263 97.9862 129.623 97.8719 129.974ZM98.1212 128.839C97.5979 128.917 97.0668 128.93 96.5402 128.878C96.4807 128.753 96.4292 128.625 96.3861 128.494C96.6413 128.563 96.9094 128.569 97.1676 128.512C97.4257 128.455 97.6662 128.336 97.8686 128.166C97.9648 128.328 98.0534 128.495 98.1343 128.668C98.131 128.727 98.1277 128.783 98.1212 128.839ZM97.4652 127.582C97.425 127.688 97.3733 127.79 97.311 127.884C97.2283 127.992 97.1286 128.085 97.0158 128.16C96.8585 128.007 96.7306 127.827 96.6386 127.628C96.8478 127.527 97.0679 127.45 97.2946 127.399L97.4652 127.582ZM97.5406 127.681C97.6527 127.824 97.7557 127.974 97.8489 128.13C97.6486 128.23 97.4372 128.306 97.2192 128.356L97.0322 128.179C97.1483 128.139 97.2539 128.074 97.3413 127.987C97.4287 127.901 97.4957 127.796 97.5373 127.681H97.5406ZM97.1372 128.373C96.876 128.422 96.6079 128.422 96.3467 128.373C96.3102 128.25 96.2817 128.125 96.2614 127.999C96.3398 127.863 96.453 127.749 96.5894 127.671C96.6227 127.821 96.6888 127.962 96.7829 128.083C96.8771 128.204 96.9969 128.303 97.1339 128.373H97.1372ZM98.0556 126.579C98.1603 127.205 98.1933 127.841 98.154 128.475C97.894 127.738 97.3608 127.13 96.6649 126.776C97.1159 126.646 97.5829 126.579 98.0523 126.579H98.0556ZM96.5599 126.805C96.8143 126.957 97.048 127.141 97.2553 127.353C97.0602 127.342 96.8656 127.38 96.6887 127.463C96.5119 127.546 96.3583 127.672 96.2417 127.828C96.2011 127.514 96.2167 127.196 96.2877 126.887L96.5599 126.805ZM96.1433 126.94C96.0663 127.267 96.0556 127.606 96.1119 127.937C96.1683 128.268 96.2905 128.585 96.4713 128.868C96.2011 128.837 95.9343 128.781 95.6743 128.701C95.4677 128.494 95.261 128.278 95.0478 128.045C94.9953 127.878 94.9494 127.717 94.9035 127.546C95.2951 127.304 95.7092 127.099 96.1401 126.936L96.1433 126.94Z" fill="#4650DA"/>
<path d="M119.681 128.163C118.201 127.835 116.686 125.831 117.181 124.053C117.676 122.275 120.163 121.236 121.58 121.855C122.997 122.475 123.971 125.306 123.282 126.48C122.518 127.782 120.766 128.393 119.681 128.163Z" fill="#B7CFFF"/>
<path d="M122.177 121.517C122.149 122.304 122.039 123.086 121.849 123.85C121.137 123.072 119.704 122.711 118.671 122.905C118.755 122.441 118.865 121.982 118.999 121.531C119 121.526 119.001 121.521 119 121.517C119 121.512 118.999 121.507 118.997 121.503C118.995 121.499 118.992 121.495 118.988 121.492C118.984 121.489 118.98 121.486 118.976 121.485C118.971 121.483 118.966 121.483 118.962 121.483C118.957 121.483 118.952 121.485 118.948 121.487C118.944 121.489 118.94 121.492 118.937 121.495C118.934 121.499 118.931 121.503 118.93 121.508C118.323 122.836 118.015 124.961 118.733 126.336C118.082 126.194 117.458 125.947 116.886 125.604C116.884 125.603 116.881 125.601 116.878 125.601C116.875 125.6 116.872 125.6 116.869 125.601C116.866 125.601 116.863 125.603 116.86 125.604C116.858 125.606 116.855 125.608 116.854 125.611C116.852 125.614 116.851 125.616 116.85 125.619C116.849 125.622 116.849 125.626 116.85 125.629C116.851 125.632 116.852 125.635 116.854 125.637C116.855 125.64 116.858 125.642 116.86 125.644C118.776 127.028 121.724 126.956 123.886 126.231C123.942 126.211 123.912 126.113 123.853 126.129C122.856 126.376 121.836 126.513 120.809 126.539C121.875 125.27 122.387 123.108 122.308 121.511C122.302 121.435 122.177 121.442 122.177 121.517ZM119.337 126.437C120.257 126.117 121.052 125.51 121.603 124.706C121.385 125.352 121.081 125.966 120.701 126.533C120.245 126.536 119.789 126.507 119.337 126.444V126.437ZM118.615 125.276C119.387 125.487 120.205 125.453 120.957 125.178C120.451 125.69 119.859 126.11 119.209 126.418C119.091 126.398 118.972 126.378 118.858 126.352C118.743 126.009 118.662 125.655 118.615 125.296V125.276ZM118.592 125.05C118.677 124.876 118.766 124.722 118.861 124.548C119.063 124.718 119.304 124.837 119.562 124.894C119.82 124.951 120.088 124.945 120.343 124.876C120.299 125.007 120.247 125.135 120.189 125.26C119.662 125.312 119.13 125.299 118.605 125.221C118.599 125.168 118.599 125.112 118.592 125.057V125.05ZM119.428 123.781C119.655 123.83 119.876 123.905 120.084 124.007C119.991 124.207 119.862 124.388 119.704 124.542C119.592 124.464 119.493 124.37 119.409 124.263C119.346 124.169 119.295 124.069 119.255 123.964C119.317 123.909 119.373 123.846 119.428 123.787V123.781ZM119.697 124.558C119.638 124.62 119.576 124.679 119.514 124.735C119.295 124.685 119.083 124.61 118.881 124.512C118.973 124.354 119.076 124.203 119.189 124.059C119.231 124.176 119.298 124.282 119.386 124.37C119.474 124.457 119.58 124.524 119.697 124.565V124.558ZM120.157 124.043C120.293 124.121 120.407 124.234 120.485 124.371C120.462 124.497 120.432 124.622 120.396 124.745C120.136 124.794 119.869 124.794 119.609 124.745C119.745 124.676 119.865 124.578 119.96 124.458C120.054 124.338 120.121 124.198 120.157 124.05V124.043ZM120.065 123.154C119.369 123.511 118.837 124.12 118.576 124.857C118.536 124.222 118.569 123.585 118.674 122.957C119.145 122.96 119.613 123.028 120.065 123.161V123.154ZM120.442 123.269C120.516 123.576 120.532 123.894 120.491 124.207C120.374 124.05 120.22 123.925 120.042 123.843C119.865 123.76 119.67 123.723 119.474 123.735C119.681 123.522 119.915 123.337 120.17 123.184C120.261 123.22 120.353 123.243 120.442 123.276V123.269ZM121.842 123.925C121.8 124.092 121.751 124.253 121.698 124.424C121.482 124.656 121.278 124.873 121.072 125.08C120.81 125.159 120.543 125.215 120.271 125.247C120.452 124.964 120.574 124.647 120.631 124.316C120.687 123.984 120.676 123.645 120.599 123.318C121.032 123.48 121.448 123.684 121.842 123.925Z" fill="#4650DA"/>
<path d="M58.3182 134.277C56.839 133.965 55.3269 131.945 55.8189 130.167C56.3109 128.389 58.8004 127.349 60.2174 127.969C61.6343 128.589 62.6118 131.423 61.923 132.594C61.1554 133.899 59.4072 134.51 58.3182 134.277Z" fill="#B7CFFF"/>
<path d="M60.8147 127.631C60.7906 128.418 60.6806 129.2 60.4867 129.963C59.775 129.186 58.3449 128.825 57.3117 129.019C57.3907 128.556 57.4947 128.099 57.6233 127.648C57.6268 127.639 57.6265 127.628 57.6225 127.619C57.6185 127.611 57.6111 127.604 57.602 127.6C57.5929 127.597 57.5827 127.597 57.5738 127.601C57.5649 127.605 57.5579 127.612 57.5544 127.621C56.9443 128.95 56.636 131.079 57.3576 132.45C56.7062 132.309 56.0823 132.061 55.511 131.718C55.4847 131.718 55.4585 131.741 55.4815 131.758C57.397 133.142 60.349 133.07 62.5072 132.345C62.5663 132.325 62.5335 132.23 62.4744 132.243C61.4795 132.493 60.4596 132.631 59.4339 132.653C60.4999 131.384 61.0083 129.222 60.9328 127.628C60.9394 127.553 60.818 127.559 60.8147 127.631ZM57.9743 132.551C58.8961 132.229 59.6912 131.621 60.244 130.816C60.0248 131.462 59.7216 132.076 59.342 132.643C58.8847 132.65 58.4275 132.623 57.9743 132.561V132.551ZM57.2527 131.387C58.0243 131.599 58.8427 131.565 59.5946 131.292C59.0895 131.804 58.4976 132.223 57.8463 132.528L57.4954 132.466C57.3815 132.118 57.3002 131.76 57.2527 131.397V131.387ZM57.2297 131.164C57.315 130.987 57.4035 130.819 57.4987 130.659C57.701 130.829 57.9416 130.948 58.1997 131.005C58.4578 131.062 58.726 131.056 58.9812 130.987C58.9372 131.116 58.8858 131.243 58.8271 131.367C58.3006 131.421 57.7696 131.409 57.2461 131.331C57.2363 131.285 57.2363 131.229 57.2297 131.174V131.164ZM58.0563 129.888C58.2829 129.939 58.503 130.016 58.7123 130.118C58.6179 130.315 58.4903 130.495 58.3351 130.649C58.2238 130.572 58.1243 130.479 58.0399 130.373C57.975 130.28 57.9232 130.179 57.8857 130.072C57.9579 130.022 58.0103 129.96 58.0563 129.888ZM58.3252 130.669L58.1415 130.842C57.9231 130.791 57.7109 130.716 57.5085 130.619C57.6037 130.463 57.7077 130.312 57.8201 130.167C57.8607 130.286 57.9283 130.395 58.0175 130.484C58.1068 130.574 58.2155 130.641 58.3351 130.682L58.3252 130.669ZM58.7844 130.15C58.9205 130.229 59.0336 130.342 59.1124 130.478C59.0926 130.606 59.063 130.732 59.0239 130.856C58.7636 130.903 58.4969 130.903 58.2367 130.856C58.375 130.789 58.4967 130.692 58.5931 130.572C58.6896 130.452 58.7582 130.313 58.7943 130.163L58.7844 130.15ZM58.6926 129.261C57.9981 129.618 57.4664 130.227 57.2067 130.964C57.1675 130.33 57.2005 129.694 57.3051 129.068C57.7818 129.068 58.2558 129.137 58.7123 129.275L58.6926 129.261ZM59.0731 129.376C59.1441 129.685 59.1596 130.004 59.119 130.318C59.0025 130.16 58.8485 130.034 58.6709 129.951C58.4933 129.868 58.2979 129.83 58.1022 129.842C58.3108 129.632 58.5443 129.448 58.7975 129.294L59.0731 129.376ZM60.4703 130.032C60.4277 130.203 60.3785 130.36 60.3293 130.531C60.3293 130.531 60.3293 130.531 60.3129 130.531C60.0997 130.764 59.8931 130.98 59.6864 131.187C59.4249 131.264 59.1571 131.319 58.8861 131.351C59.0669 131.068 59.1891 130.752 59.2454 130.421C59.3017 130.091 59.2911 129.752 59.2141 129.425C59.6553 129.588 60.0794 129.793 60.4802 130.039L60.4703 130.032Z" fill="#4650DA"/>
<path d="M52.657 115.61C54.5856 118.372 59.8369 118.89 72.9405 121.465C74.7511 121.819 80.6879 109.7 78.7822 109.224C76.3681 108.621 66.8725 106.804 66.1608 106.758C60.1617 106.374 51.3483 113.741 52.657 115.61Z" fill="#F7A9A0"/>
<path d="M76.1615 108.624C76.1615 108.624 81.7145 109.46 84.4927 110.805C88.2155 112.603 90.6886 115.689 91.6463 117.037C93.6471 119.868 96.527 128.091 94.2999 129.334C92.2892 130.459 89.7702 121.905 89.7702 121.905C89.7702 121.905 93.7783 130.203 91.1051 131.112C88.4319 132.02 86.0703 121.928 86.0703 121.928C86.0703 121.928 90.0063 130.544 87.0937 131.046C84.8994 131.427 82.2459 122.4 82.2459 122.4C82.2459 122.4 85.5685 129.832 83.3283 130.318C80.8519 130.872 77.8835 122.672 77.8835 122.672C71.9795 122.951 69.0537 120.668 67.1644 118.799C66.7085 118.352 76.1615 108.624 76.1615 108.624Z" fill="#F7A9A0"/>
<path d="M88.5603 118.953C89.0654 119.911 89.5869 120.875 90.0035 121.875C90.4201 122.876 90.8071 123.889 91.1318 124.922C91.5845 126.266 91.8795 127.657 92.0108 129.068C91.591 126.582 90.1445 122.981 89.7149 121.98C89.2852 120.98 88.9277 119.963 88.5078 118.966C88.5177 118.94 88.5603 118.93 88.5603 118.953Z" fill="#263238"/>
<path d="M84.9293 120.399C85.523 121.652 86.1593 122.872 86.6972 124.148C87.2351 125.424 87.6287 126.674 88.0748 127.979C88.1109 128.077 88.0453 128.064 88.0059 127.963C87.5074 126.677 86.9465 125.529 86.4348 124.246C85.9231 122.964 85.4508 121.668 84.8998 120.412C84.8899 120.392 84.9227 120.376 84.9293 120.399Z" fill="#263238"/>
<path d="M81.587 121.081C82.5427 122.978 83.3 124.969 83.8469 127.021C83.8797 127.12 83.7944 127.094 83.7584 126.992C83.0433 125.004 82.4988 123.44 81.5214 121.117C81.505 121.081 81.564 121.032 81.587 121.081Z" fill="#263238"/>
<path d="M87.7827 112.917C88.4299 113.338 89.0342 113.822 89.5867 114.361C90.1477 114.893 90.6654 115.468 91.1349 116.083C91.3743 116.388 91.5875 116.709 91.8106 117.027C92.0336 117.345 92.2271 117.683 92.3944 118.011C92.765 118.69 93.0661 119.404 93.2931 120.143C93.0996 119.815 92.9651 119.451 92.7519 119.127L92.4764 118.625C92.3813 118.461 92.2763 118.297 92.1779 118.139C91.7738 117.492 91.3359 116.867 90.8659 116.266C90.4067 115.663 89.9114 115.082 89.3998 114.521C89.1406 114.239 88.8782 113.964 88.606 113.695C88.3338 113.426 88.0681 113.177 87.7827 112.917Z" fill="#263238"/>
<path d="M77.3197 108.624L65.8397 121.416C65.8397 121.416 54.2318 118.749 52.5229 115.774C51.3979 113.806 60.1358 105.878 66.7319 106.803L77.3197 108.624Z" fill="#4650DA"/>
<path d="M61.0375 109.283C61.0382 109.342 61.0213 109.399 60.9891 109.448C60.9569 109.497 60.9109 109.536 60.8568 109.559C60.8027 109.581 60.7431 109.587 60.6855 109.576C60.628 109.565 60.5751 109.537 60.5336 109.495C60.4921 109.454 60.4639 109.401 60.4526 109.343C60.4414 109.286 60.4475 109.226 60.4702 109.172C60.493 109.118 60.5313 109.072 60.5804 109.04C60.6294 109.007 60.6869 108.991 60.7456 108.991C60.823 108.991 60.8973 109.022 60.952 109.077C61.0068 109.131 61.0375 109.206 61.0375 109.283ZM65.4688 108.991C65.4111 108.991 65.3546 109.008 65.3066 109.04C65.2586 109.073 65.2212 109.118 65.1991 109.171C65.177 109.225 65.1712 109.283 65.1825 109.34C65.1937 109.397 65.2215 109.449 65.2624 109.49C65.3032 109.53 65.3552 109.558 65.4118 109.569C65.4685 109.581 65.5272 109.575 65.5805 109.553C65.6338 109.531 65.6794 109.493 65.7115 109.445C65.7436 109.397 65.7607 109.341 65.7607 109.283C65.7607 109.206 65.73 109.131 65.6752 109.077C65.6205 109.022 65.5462 108.991 65.4688 108.991ZM70.192 108.991C70.1344 108.992 70.0783 109.01 70.0307 109.042C69.9831 109.074 69.9462 109.12 69.9246 109.174C69.903 109.227 69.8977 109.286 69.9094 109.342C69.921 109.398 69.9491 109.45 69.99 109.491C70.031 109.531 70.083 109.559 70.1395 109.57C70.196 109.581 70.2546 109.575 70.3077 109.553C70.3609 109.53 70.4063 109.493 70.4382 109.445C70.4701 109.397 70.4872 109.341 70.4872 109.283C70.4872 109.245 70.4795 109.206 70.4647 109.171C70.4498 109.135 70.428 109.103 70.4005 109.076C70.3731 109.048 70.3405 109.027 70.3047 109.013C70.2689 108.998 70.2306 108.991 70.192 108.991ZM74.9185 108.991C74.8607 108.991 74.8043 109.008 74.7563 109.04C74.7083 109.073 74.6709 109.118 74.6488 109.171C74.6267 109.225 74.6209 109.283 74.6322 109.34C74.6434 109.397 74.6712 109.449 74.712 109.49C74.7529 109.53 74.8049 109.558 74.8615 109.569C74.9181 109.581 74.9768 109.575 75.0302 109.553C75.0835 109.531 75.1291 109.493 75.1612 109.445C75.1933 109.397 75.2104 109.341 75.2104 109.283C75.2104 109.206 75.1796 109.131 75.1249 109.077C75.0701 109.022 74.9959 108.991 74.9185 108.991ZM56.0191 115.312C55.9615 115.312 55.9054 115.33 55.8578 115.363C55.8103 115.395 55.7734 115.441 55.7518 115.494C55.7302 115.548 55.7249 115.606 55.7365 115.663C55.7481 115.719 55.7762 115.771 55.8171 115.811C55.8581 115.852 55.9101 115.879 55.9666 115.89C56.0232 115.901 56.0817 115.895 56.1348 115.873C56.188 115.851 56.2334 115.813 56.2653 115.766C56.2973 115.718 56.3143 115.661 56.3143 115.604C56.3143 115.565 56.3067 115.527 56.2918 115.491C56.2769 115.456 56.2551 115.423 56.2276 115.396C56.2002 115.369 56.1676 115.348 56.1318 115.333C56.096 115.319 56.0577 115.311 56.0191 115.312ZM60.7456 115.312C60.6878 115.312 60.6314 115.329 60.5834 115.361C60.5354 115.393 60.498 115.439 60.4759 115.492C60.4538 115.545 60.448 115.604 60.4593 115.661C60.4705 115.717 60.4983 115.769 60.5392 115.81C60.58 115.851 60.632 115.879 60.6886 115.89C60.7453 115.901 60.804 115.895 60.8573 115.873C60.9106 115.851 60.9562 115.814 60.9883 115.766C61.0204 115.718 61.0375 115.661 61.0375 115.604C61.0375 115.526 61.0068 115.452 60.952 115.397C60.8973 115.343 60.823 115.312 60.7456 115.312ZM65.4688 115.312C65.4111 115.312 65.3546 115.329 65.3066 115.361C65.2586 115.393 65.2212 115.439 65.1991 115.492C65.177 115.545 65.1712 115.604 65.1825 115.661C65.1937 115.717 65.2215 115.769 65.2624 115.81C65.3032 115.851 65.3552 115.879 65.4118 115.89C65.4685 115.901 65.5272 115.895 65.5805 115.873C65.6338 115.851 65.6794 115.814 65.7115 115.766C65.7436 115.718 65.7607 115.661 65.7607 115.604C65.7607 115.526 65.73 115.452 65.6752 115.397C65.6205 115.343 65.5462 115.312 65.4688 115.312ZM70.192 115.312C70.1344 115.312 70.0783 115.33 70.0307 115.363C69.9831 115.395 69.9462 115.441 69.9246 115.494C69.903 115.548 69.8977 115.606 69.9094 115.663C69.921 115.719 69.9491 115.771 69.99 115.811C70.031 115.852 70.083 115.879 70.1395 115.89C70.196 115.901 70.2546 115.895 70.3077 115.873C70.3609 115.851 70.4063 115.813 70.4382 115.766C70.4701 115.718 70.4872 115.661 70.4872 115.604C70.4872 115.565 70.4795 115.527 70.4647 115.491C70.4498 115.456 70.428 115.423 70.4005 115.396C70.3731 115.369 70.3405 115.348 70.3047 115.333C70.2689 115.319 70.2306 115.311 70.192 115.312ZM58.384 112.284C58.3255 112.284 58.2683 112.302 58.2196 112.334C58.171 112.367 58.1332 112.413 58.111 112.467C58.0887 112.521 58.0831 112.581 58.0947 112.638C58.1064 112.696 58.1348 112.748 58.1764 112.789C58.218 112.831 58.271 112.858 58.3284 112.869C58.3859 112.88 58.4454 112.874 58.4992 112.851C58.5531 112.828 58.599 112.79 58.631 112.741C58.6631 112.692 58.6798 112.635 58.6792 112.576C58.6792 112.538 58.6715 112.499 58.6567 112.464C58.6418 112.428 58.62 112.396 58.5925 112.369C58.5651 112.342 58.5325 112.32 58.4967 112.306C58.4609 112.291 58.4226 112.284 58.384 112.284ZM63.1105 112.284C63.0518 112.284 62.9943 112.301 62.9452 112.333C62.8962 112.365 62.8579 112.411 62.8351 112.465C62.8124 112.519 62.8062 112.579 62.8175 112.636C62.8288 112.694 62.857 112.747 62.8985 112.788C62.9399 112.83 62.9928 112.858 63.0504 112.869C63.108 112.88 63.1676 112.874 63.2217 112.852C63.2757 112.829 63.3218 112.791 63.354 112.741C63.3862 112.692 63.403 112.635 63.4024 112.576C63.4024 112.538 63.3947 112.499 63.3799 112.464C63.365 112.428 63.3432 112.396 63.3157 112.369C63.2883 112.342 63.2557 112.32 63.2199 112.306C63.1841 112.291 63.1458 112.284 63.1072 112.284H63.1105ZM67.8337 112.284C67.7751 112.284 67.7179 112.302 67.6693 112.334C67.6207 112.367 67.5829 112.413 67.5606 112.467C67.5384 112.521 67.5327 112.581 67.5444 112.638C67.5561 112.696 67.5845 112.748 67.6261 112.789C67.6677 112.831 67.7206 112.858 67.7781 112.869C67.8356 112.88 67.895 112.874 67.9489 112.851C68.0028 112.828 68.0487 112.79 68.0807 112.741C68.1128 112.692 68.1295 112.635 68.1289 112.576C68.1289 112.537 68.1211 112.499 68.106 112.463C68.091 112.427 68.0689 112.395 68.0411 112.367C68.0133 112.34 67.9803 112.319 67.9441 112.305C67.9079 112.29 67.8693 112.283 67.8304 112.284H67.8337ZM72.5601 112.284C72.5015 112.284 72.444 112.301 72.3949 112.333C72.3459 112.365 72.3075 112.411 72.2848 112.465C72.262 112.519 72.2559 112.579 72.2672 112.636C72.2785 112.694 72.3067 112.747 72.3481 112.788C72.3896 112.83 72.4425 112.858 72.5001 112.869C72.5577 112.88 72.6173 112.874 72.6714 112.852C72.7254 112.829 72.7715 112.791 72.8037 112.741C72.8359 112.692 72.8527 112.635 72.8521 112.576C72.8521 112.538 72.8444 112.499 72.8295 112.464C72.8147 112.428 72.7929 112.396 72.7654 112.369C72.738 112.342 72.7054 112.32 72.6696 112.306C72.6338 112.291 72.5955 112.284 72.5569 112.284H72.5601ZM58.384 118.605C58.3255 118.605 58.2683 118.622 58.2196 118.655C58.171 118.687 58.1332 118.734 58.111 118.788C58.0887 118.842 58.0831 118.902 58.0947 118.959C58.1064 119.016 58.1348 119.069 58.1764 119.11C58.218 119.151 58.271 119.179 58.3284 119.19C58.3859 119.201 58.4454 119.195 58.4992 119.172C58.5531 119.149 58.599 119.111 58.631 119.062C58.6631 119.013 58.6798 118.955 58.6792 118.897C58.6792 118.858 58.6715 118.82 58.6567 118.784C58.6418 118.749 58.62 118.716 58.5925 118.689C58.5651 118.662 58.5325 118.641 58.4967 118.626C58.4609 118.612 58.4226 118.604 58.384 118.605ZM63.1105 118.605C63.0518 118.604 62.9943 118.621 62.9452 118.653C62.8962 118.685 62.8579 118.732 62.8351 118.786C62.8124 118.84 62.8062 118.899 62.8175 118.957C62.8288 119.014 62.857 119.067 62.8985 119.109C62.9399 119.15 62.9928 119.178 63.0504 119.19C63.108 119.201 63.1676 119.195 63.2217 119.172C63.2757 119.149 63.3218 119.111 63.354 119.062C63.3862 119.013 63.403 118.955 63.4024 118.897C63.4024 118.858 63.3947 118.82 63.3799 118.784C63.365 118.749 63.3432 118.716 63.3157 118.689C63.2883 118.662 63.2557 118.641 63.2199 118.626C63.1841 118.612 63.1458 118.604 63.1072 118.605H63.1105ZM67.8369 118.605C67.7587 118.605 67.6836 118.636 67.6282 118.691C67.5728 118.747 67.5417 118.822 67.5417 118.9C67.5417 118.939 67.5494 118.977 67.5643 119.013C67.5792 119.048 67.601 119.081 67.6284 119.108C67.6559 119.135 67.6884 119.156 67.7242 119.171C67.76 119.185 67.7983 119.192 67.8369 119.192L68.1256 118.864C68.1175 118.792 68.0834 118.726 68.0296 118.677C67.9757 118.629 67.906 118.602 67.8337 118.602L67.8369 118.605Z" fill="#87C159"/>
<path d="M58.8664 108.873C59.9291 108.102 62.9238 106.305 66.7384 106.784C66.7712 106.784 66.7745 106.843 66.7384 106.839C63.8586 106.757 59.9718 108.263 58.8664 108.919C58.8631 108.935 58.8402 108.896 58.8664 108.873Z" fill="#263238"/>
<path d="M62.7039 119.264C63.8913 117.792 65.1541 116.385 66.4234 114.981C67.6928 113.577 68.9589 112.166 70.2643 110.792C70.999 110.015 71.7337 109.234 72.498 108.496C72.5177 108.476 72.5537 108.496 72.5373 108.529C71.3533 109.998 70.0905 111.415 68.8342 112.826C67.578 114.236 66.2988 115.64 65.013 117.031C64.2849 117.815 63.5436 118.585 62.7793 119.327C62.74 119.363 62.6711 119.307 62.7039 119.264Z" fill="#263238"/>
<path d="M77.3423 108.457C76.6371 108.245 75.9182 108.081 75.1906 107.968C74.4657 107.83 73.7376 107.709 73.0127 107.591C71.5662 107.358 68.5256 106.702 65.8524 106.709C65.8229 106.709 65.9738 106.853 66.0033 106.853C67.276 106.784 76.3944 108.598 77.1553 108.65C77.1248 108.699 77.0974 108.749 77.0733 108.801C77.0733 108.841 77.0963 108.886 77.1356 108.86C77.2308 108.798 77.2964 108.719 77.3849 108.65C77.4019 108.638 77.4149 108.621 77.4223 108.601C77.4297 108.582 77.4313 108.56 77.4267 108.54C77.4222 108.519 77.4118 108.5 77.3968 108.486C77.3818 108.471 77.3629 108.461 77.3423 108.457Z" fill="#263238"/>
<path d="M86.6578 84.2961C97.6261 93.8639 106.253 105.685 105.682 108.64C104.649 114.144 97.4162 114.489 96.3075 113.298C91.8664 108.486 87.1793 99.1644 82.1019 88.7635C77.5656 79.468 83.0465 81.1506 86.6578 84.2961Z" fill="#4650DA"/>
<path d="M84.6602 84.0009C84.6608 84.0596 84.644 84.1171 84.6118 84.1661C84.5796 84.2152 84.5336 84.2535 84.4795 84.2763C84.4254 84.299 84.3658 84.3052 84.3082 84.2939C84.2507 84.2826 84.1978 84.2544 84.1563 84.2129C84.1148 84.1714 84.0866 84.1185 84.0753 84.061C84.0641 84.0034 84.0702 83.9438 84.0929 83.8897C84.1157 83.8356 84.154 83.7896 84.2031 83.7574C84.2521 83.7252 84.3096 83.7084 84.3683 83.709C84.4457 83.709 84.52 83.7398 84.5747 83.7945C84.6294 83.8492 84.6602 83.9235 84.6602 84.0009ZM84.3683 90.0296C84.3096 90.0289 84.2521 90.0458 84.2031 90.0779C84.154 90.1101 84.1157 90.1562 84.0929 90.2103C84.0702 90.2643 84.0641 90.324 84.0753 90.3815C84.0866 90.4391 84.1148 90.492 84.1563 90.5335C84.1978 90.575 84.2507 90.6031 84.3082 90.6144C84.3658 90.6257 84.4254 90.6196 84.4795 90.5968C84.5336 90.5741 84.5796 90.5358 84.6118 90.4867C84.644 90.4377 84.6608 90.3801 84.6602 90.3215C84.6602 90.2441 84.6294 90.1698 84.5747 90.1151C84.52 90.0603 84.4457 90.0296 84.3683 90.0296ZM89.0915 90.0296C89.033 90.0296 88.9758 90.047 88.9271 90.0795C88.8785 90.1121 88.8407 90.1584 88.8185 90.2126C88.7962 90.2667 88.7906 90.3262 88.8022 90.3836C88.8139 90.4409 88.8423 90.4935 88.8839 90.5347C88.9255 90.5758 88.9784 90.6037 89.0359 90.6147C89.0934 90.6257 89.1529 90.6194 89.2067 90.5965C89.2606 90.5737 89.3065 90.5353 89.3385 90.4864C89.3706 90.4374 89.3873 90.38 89.3867 90.3215C89.3867 90.2829 89.379 90.2446 89.3641 90.209C89.3493 90.1734 89.3275 90.141 89.3 90.1139C89.2726 90.0867 89.24 90.0653 89.2042 90.0508C89.1684 90.0364 89.1301 90.0291 89.0915 90.0296ZM82.0001 87.0021C81.9415 87.0015 81.8839 87.0183 81.8349 87.0505C81.7858 87.0827 81.7475 87.1288 81.7248 87.1828C81.702 87.2369 81.6959 87.2965 81.7072 87.3541C81.7185 87.4117 81.7466 87.4646 81.7881 87.506C81.8296 87.5475 81.8825 87.5757 81.9401 87.587C81.9976 87.5983 82.0573 87.5922 82.1113 87.5694C82.1654 87.5467 82.2115 87.5083 82.2437 87.4593C82.2758 87.4102 82.2927 87.3527 82.292 87.294C82.292 87.2166 82.2613 87.1424 82.2065 87.0876C82.1518 87.0329 82.0775 87.0021 82.0001 87.0021ZM86.7233 87.0021C86.6647 87.0015 86.6071 87.0183 86.5581 87.0505C86.5091 87.0827 86.4707 87.1288 86.448 87.1828C86.4252 87.2369 86.4191 87.2965 86.4304 87.3541C86.4417 87.4117 86.4698 87.4646 86.5113 87.506C86.5528 87.5475 86.6057 87.5757 86.6633 87.587C86.7208 87.5983 86.7805 87.5922 86.8345 87.5694C86.8886 87.5467 86.9347 87.5083 86.9669 87.4593C86.999 87.4102 87.0159 87.3527 87.0152 87.294C87.0153 87.2177 86.9854 87.1445 86.9321 87.0899C86.8787 87.0353 86.8062 87.0038 86.7299 87.0021H86.7233ZM89.0849 96.3501C89.0264 96.3501 88.9692 96.3675 88.9206 96.4001C88.872 96.4327 88.8341 96.479 88.8119 96.5331C88.7897 96.5873 88.784 96.6468 88.7957 96.7041C88.8073 96.7615 88.8358 96.8141 88.8774 96.8552C88.919 96.8964 88.9719 96.9242 89.0294 96.9352C89.0868 96.9463 89.1463 96.9399 89.2002 96.9171C89.2541 96.8942 89.2999 96.8559 89.332 96.8069C89.364 96.758 89.3808 96.7006 89.3801 96.642C89.3801 96.5652 89.3498 96.4914 89.2958 96.4368C89.2417 96.3821 89.1683 96.351 89.0915 96.3501H89.0849ZM93.8114 96.3501C93.7527 96.3495 93.6952 96.3663 93.6462 96.3985C93.5971 96.4307 93.5588 96.4768 93.536 96.5308C93.5133 96.5849 93.5072 96.6445 93.5184 96.7021C93.5297 96.7597 93.5579 96.8126 93.5994 96.854C93.6409 96.8955 93.6938 96.9237 93.7513 96.935C93.8089 96.9463 93.8685 96.9402 93.9226 96.9174C93.9767 96.8947 94.0228 96.8563 94.0549 96.8073C94.0871 96.7582 94.104 96.7007 94.1033 96.642C94.1033 96.6034 94.0957 96.5652 94.0808 96.5296C94.0659 96.4939 94.0441 96.4616 94.0167 96.4345C93.9892 96.4073 93.9566 96.3859 93.9208 96.3714C93.885 96.3569 93.8467 96.3497 93.8081 96.3501H93.8114ZM98.4329 96.3665C98.377 96.3878 98.3289 96.4255 98.295 96.4747C98.261 96.5239 98.2428 96.5823 98.2427 96.642C98.2427 96.7195 98.2734 96.7937 98.3282 96.8485C98.3829 96.9032 98.4572 96.934 98.5346 96.934C98.5852 96.9338 98.6349 96.9208 98.6791 96.8961C98.7233 96.8714 98.7605 96.8359 98.7872 96.7929L98.4329 96.3665ZM86.7233 93.3227C86.6647 93.322 86.6071 93.3389 86.5581 93.3711C86.5091 93.4032 86.4707 93.4493 86.448 93.5034C86.4252 93.5575 86.4191 93.6171 86.4304 93.6747C86.4417 93.7322 86.4698 93.7851 86.5113 93.8266C86.5528 93.8681 86.6057 93.8963 86.6633 93.9075C86.7208 93.9188 86.7805 93.9127 86.8345 93.89C86.8886 93.8672 86.9347 93.8289 86.9669 93.7798C86.999 93.7308 87.0159 93.6733 87.0152 93.6146C87.0153 93.5383 86.9854 93.465 86.9321 93.4105C86.8787 93.3559 86.8062 93.3244 86.7299 93.3227H86.7233ZM91.4465 93.3227C91.388 93.3227 91.3308 93.3401 91.2822 93.3727C91.2336 93.4053 91.1957 93.4516 91.1735 93.5057C91.1512 93.5598 91.1456 93.6193 91.1573 93.6767C91.1689 93.734 91.1974 93.7866 91.239 93.8278C91.2806 93.8689 91.3335 93.8968 91.391 93.9078C91.4484 93.9188 91.5079 93.9125 91.5618 93.8897C91.6157 93.8668 91.6615 93.8285 91.6936 93.7795C91.7256 93.7305 91.7424 93.6731 91.7417 93.6146C91.7417 93.5377 91.7114 93.464 91.6574 93.4093C91.6033 93.3547 91.5299 93.3235 91.4531 93.3227H91.4465ZM95.9237 93.4604C95.8959 93.5071 95.8812 93.5603 95.8811 93.6146C95.8807 93.6532 95.8879 93.6915 95.9024 93.7273C95.9168 93.7631 95.9383 93.7957 95.9654 93.8231C95.9926 93.8506 96.0249 93.8724 96.0605 93.8873C96.0962 93.9021 96.1344 93.9098 96.173 93.9098C96.2149 93.9104 96.2564 93.9014 96.2944 93.8836C96.1796 93.7392 96.0549 93.6015 95.9303 93.4604H95.9237ZM89.2161 102.69C89.2784 102.799 89.3342 102.907 89.3932 103.018C89.3948 103.002 89.3948 102.986 89.3932 102.969C89.3958 102.91 89.3802 102.852 89.3485 102.802C89.3168 102.752 89.2706 102.713 89.2161 102.69ZM93.8081 102.664C93.7495 102.663 93.6919 102.68 93.6429 102.712C93.5938 102.745 93.5555 102.791 93.5328 102.845C93.51 102.899 93.5039 102.959 93.5152 103.016C93.5265 103.074 93.5546 103.127 93.5961 103.168C93.6376 103.21 93.6905 103.238 93.7481 103.249C93.8056 103.26 93.8653 103.254 93.9193 103.231C93.9734 103.209 94.0195 103.17 94.0517 103.121C94.0838 103.072 94.1007 103.015 94.1 102.956C94.1 102.879 94.0693 102.804 94.0145 102.75C93.9598 102.695 93.8855 102.664 93.8081 102.664ZM98.5313 102.664C98.4727 102.663 98.4151 102.68 98.3661 102.712C98.3171 102.745 98.2787 102.791 98.256 102.845C98.2332 102.899 98.2271 102.959 98.2384 103.016C98.2497 103.074 98.2778 103.127 98.3193 103.168C98.3608 103.21 98.4137 103.238 98.4713 103.249C98.5288 103.26 98.5885 103.254 98.6425 103.231C98.6966 103.209 98.7427 103.17 98.7749 103.121C98.807 103.072 98.8239 103.015 98.8232 102.956C98.8233 102.88 98.7939 102.807 98.7412 102.753C98.6886 102.699 98.6169 102.667 98.5412 102.664H98.5313ZM103.143 102.684C103.082 102.711 103.032 102.759 103.002 102.818C102.971 102.878 102.962 102.946 102.975 103.012C102.989 103.077 103.024 103.136 103.075 103.179C103.126 103.222 103.191 103.246 103.258 103.248C103.331 103.248 103.403 103.221 103.458 103.173C103.366 103.018 103.261 102.854 103.153 102.69L103.143 102.684ZM91.4432 99.6367C91.3847 99.6367 91.3275 99.6541 91.2789 99.6867C91.2303 99.7192 91.1925 99.7656 91.1702 99.8197C91.148 99.8738 91.1423 99.9333 91.154 99.9907C91.1656 100.048 91.1941 100.101 91.2357 100.142C91.2773 100.183 91.3302 100.211 91.3877 100.222C91.4452 100.233 91.5046 100.227 91.5585 100.204C91.6124 100.181 91.6583 100.142 91.6903 100.093C91.7223 100.045 91.7391 99.9871 91.7384 99.9286C91.7368 99.8534 91.7062 99.7818 91.653 99.7287C91.5999 99.6755 91.5282 99.6449 91.4531 99.6432L91.4432 99.6367ZM96.1697 99.6367C96.1111 99.636 96.0535 99.6529 96.0045 99.6851C95.9555 99.7172 95.9171 99.7633 95.8944 99.8174C95.8716 99.8715 95.8655 99.9311 95.8768 99.9886C95.8881 100.046 95.9162 100.099 95.9577 100.141C95.9992 100.182 96.0521 100.21 96.1097 100.222C96.1672 100.233 96.2269 100.227 96.2809 100.204C96.335 100.181 96.3811 100.143 96.4133 100.094C96.4454 100.045 96.4623 99.9873 96.4616 99.9286C96.46 99.854 96.4299 99.7828 96.3774 99.7298C96.3249 99.6767 96.2541 99.6457 96.1796 99.6432L96.1697 99.6367ZM101.185 99.8696L101.047 99.6892C101.002 99.6629 100.951 99.6493 100.899 99.6498C100.827 99.6575 100.76 99.6917 100.711 99.7459C100.662 99.8001 100.635 99.8704 100.635 99.9434C100.635 100.016 100.662 100.087 100.711 100.141C100.76 100.195 100.827 100.229 100.899 100.237C100.977 100.236 101.051 100.205 101.106 100.151C101.161 100.096 101.193 100.022 101.195 99.945C101.197 99.9221 101.197 99.899 101.195 99.8761L101.185 99.8696ZM93.8081 108.991C93.7504 108.991 93.6939 109.008 93.6459 109.04C93.5979 109.073 93.5605 109.118 93.5384 109.171C93.5163 109.225 93.5105 109.283 93.5218 109.34C93.5331 109.397 93.5609 109.449 93.6017 109.49C93.6425 109.53 93.6945 109.558 93.7512 109.569C93.8078 109.581 93.8665 109.575 93.9198 109.553C93.9732 109.531 94.0188 109.493 94.0508 109.445C94.0829 109.397 94.1 109.341 94.1 109.283C94.1 109.206 94.0693 109.131 94.0145 109.077C93.9598 109.022 93.8855 108.991 93.8081 108.991ZM98.5313 108.991C98.4736 108.991 98.4171 109.008 98.3691 109.04C98.3211 109.073 98.2837 109.118 98.2616 109.171C98.2395 109.225 98.2337 109.283 98.245 109.34C98.2563 109.397 98.2841 109.449 98.3249 109.49C98.3657 109.53 98.4177 109.558 98.4744 109.569C98.531 109.581 98.5897 109.575 98.643 109.553C98.6964 109.531 98.742 109.493 98.774 109.445C98.8061 109.397 98.8232 109.341 98.8232 109.283C98.8233 109.207 98.7939 109.135 98.7412 109.08C98.6886 109.026 98.6169 108.994 98.5412 108.991H98.5313ZM103.258 108.991C103.2 108.991 103.144 109.008 103.096 109.04C103.048 109.073 103.01 109.118 102.988 109.171C102.966 109.225 102.96 109.283 102.971 109.34C102.983 109.397 103.011 109.449 103.051 109.49C103.092 109.53 103.144 109.558 103.201 109.569C103.257 109.581 103.316 109.575 103.37 109.553C103.423 109.531 103.468 109.493 103.501 109.445C103.533 109.397 103.55 109.341 103.55 109.283C103.55 109.207 103.52 109.135 103.468 109.08C103.415 109.026 103.343 108.994 103.268 108.991H103.258ZM91.4498 105.964C91.3913 105.964 91.3341 105.981 91.2855 106.014C91.2368 106.046 91.199 106.093 91.1768 106.147C91.1545 106.201 91.1489 106.26 91.1605 106.318C91.1722 106.375 91.2006 106.428 91.2422 106.469C91.2839 106.51 91.3368 106.538 91.3942 106.549C91.4517 106.56 91.5112 106.554 91.5651 106.531C91.6189 106.508 91.6648 106.47 91.6969 106.421C91.7289 106.372 91.7456 106.314 91.745 106.256C91.745 106.178 91.7142 106.104 91.6595 106.049C91.6047 105.995 91.5305 105.964 91.4531 105.964H91.4498ZM96.1763 105.964C96.1176 105.963 96.0601 105.98 96.0111 106.012C95.962 106.044 95.9237 106.09 95.9009 106.145C95.8782 106.199 95.8721 106.258 95.8833 106.316C95.8946 106.373 95.9228 106.426 95.9643 106.468C96.0058 106.509 96.0587 106.537 96.1162 106.549C96.1738 106.56 96.2334 106.554 96.2875 106.531C96.3416 106.508 96.3876 106.47 96.4198 106.421C96.452 106.372 96.4688 106.314 96.4682 106.256C96.4682 106.179 96.4379 106.105 96.3839 106.05C96.3298 105.996 96.2564 105.965 96.1796 105.964H96.1763ZM100.899 105.964C100.841 105.964 100.784 105.981 100.735 106.014C100.687 106.046 100.649 106.093 100.626 106.147C100.604 106.201 100.599 106.26 100.61 106.318C100.622 106.375 100.65 106.428 100.692 106.469C100.734 106.51 100.786 106.538 100.844 106.549C100.901 106.56 100.961 106.554 101.015 106.531C101.069 106.508 101.114 106.47 101.147 106.421C101.179 106.372 101.195 106.314 101.195 106.256C101.195 106.178 101.164 106.104 101.109 106.049C101.054 105.995 100.98 105.964 100.903 105.964H100.899ZM96.1763 112.284C96.1176 112.284 96.0601 112.301 96.0111 112.333C95.962 112.365 95.9237 112.411 95.9009 112.465C95.8782 112.519 95.8721 112.579 95.8833 112.636C95.8946 112.694 95.9228 112.747 95.9643 112.788C96.0058 112.83 96.0587 112.858 96.1162 112.869C96.1738 112.881 96.2334 112.874 96.2875 112.852C96.3416 112.829 96.3876 112.791 96.4198 112.742C96.452 112.692 96.4688 112.635 96.4682 112.576C96.4682 112.499 96.4379 112.426 96.3839 112.371C96.3298 112.316 96.2564 112.285 96.1796 112.284H96.1763ZM100.899 112.284C100.841 112.284 100.784 112.302 100.735 112.334C100.687 112.367 100.649 112.413 100.626 112.467C100.604 112.521 100.599 112.581 100.61 112.638C100.622 112.696 100.65 112.748 100.692 112.789C100.734 112.831 100.786 112.858 100.844 112.869C100.901 112.881 100.961 112.874 101.015 112.851C101.069 112.828 101.114 112.79 101.147 112.741C101.179 112.692 101.195 112.635 101.195 112.576C101.195 112.499 101.164 112.425 101.109 112.37C101.054 112.315 100.98 112.284 100.903 112.284H100.899Z" fill="#87C159"/>
<path d="M94.4971 111.15C93.6935 109.903 92.9358 108.617 92.1683 107.345C91.4008 106.072 90.6398 104.793 89.892 103.507C88.416 100.965 87.0449 98.3675 85.7231 95.7435C84.9753 94.2576 84.2143 92.7915 83.5025 91.2761C83.4796 91.2269 83.4009 91.2761 83.4173 91.3122C84.1061 93.0615 84.8473 94.7824 85.6411 96.4749L85.6083 96.4323C85.4312 96.1928 85.2541 95.9534 85.0802 95.7106C84.7358 95.2318 84.4242 94.7431 84.0962 94.2412C84.0733 94.2019 84.0109 94.2412 84.0339 94.2806C84.3887 94.9632 84.7898 95.6207 85.2344 96.2486C85.4516 96.542 85.686 96.8224 85.9363 97.0883L85.9593 97.1079C86.3233 97.8623 86.694 98.6135 87.0843 99.358C88.4457 102.003 89.9389 104.577 91.5582 107.073C92.0174 107.771 92.4799 108.467 92.9621 109.152C93.4442 109.838 93.9461 110.5 94.4577 111.176C94.4643 111.218 94.5233 111.192 94.4971 111.15Z" fill="#263238"/>
<path d="M98.1246 112.232C96.0451 109.251 97.0881 103.32 99.3841 89.0851C99.7121 87.1171 114.649 86.963 114.42 89.0851C114.131 91.7551 111.468 102.307 110.776 103.845C107.374 111.455 99.5317 114.256 98.1246 112.232Z" fill="#F7A9A0"/>
<path d="M113.934 90.9219C114.554 89.3279 117.404 80.4915 117.542 78.2513C117.68 76.0111 117.631 69.5331 115.925 69.251C114.22 68.9689 114.085 70.8647 114.085 70.8647C114.085 70.8647 113.629 68.1325 111.887 68.0013C110.146 67.8701 110.031 70.8319 110.031 70.8319C110.031 70.8319 109.359 68.0603 107.61 68.0571C105.862 68.0538 106.272 71.0451 106.272 71.0451C106.272 71.0451 105.774 68.4835 104.334 69.0771C102.602 69.7987 104.052 74.4203 103.707 76.8803C103.628 77.4411 101.319 88.0979 101.319 88.0979L113.934 90.9219Z" fill="#F7A9A0"/>
<path d="M106.226 70.7893C107.286 74.1907 107.161 75.8602 106.256 79.2451C106.24 79.314 106.335 79.3534 106.358 79.2878C107.545 76.0504 107.998 73.9775 106.39 70.7303C106.312 70.5695 106.177 70.6286 106.226 70.7893Z" fill="#263238"/>
<path d="M109.949 70.5628C110.739 74.1905 110.621 76.0043 109.949 79.6222C109.949 79.6714 110.028 79.6943 110.041 79.6418C111.025 76.1519 111.422 74.0658 110.156 70.553C110.08 70.3922 109.913 70.3988 109.949 70.5628Z" fill="#263238"/>
<path d="M114.052 71.0449C114.564 74.6135 114.518 76.6209 113.396 80.0321C113.39 80.0486 113.39 80.067 113.397 80.0833C113.404 80.0996 113.417 80.1125 113.434 80.119C113.451 80.1255 113.469 80.1252 113.485 80.1181C113.502 80.1111 113.514 80.0978 113.521 80.0813C115 76.6996 115.076 74.2134 114.157 71.0416C114.098 70.8251 114.019 70.8218 114.052 71.0449Z" fill="#263238"/>
<path d="M99.1678 90.8854C99.1678 90.8854 97.9838 86.5853 97.8821 84.578C97.7804 82.5706 100.149 74.9643 101.818 75.394C103.98 75.9352 103.478 80.5993 102.933 82.8494C102.933 82.8494 107.932 84.0958 108.296 87.5201C108.66 90.9444 99.1678 90.8854 99.1678 90.8854Z" fill="#F7A9A0"/>
<path d="M102.369 75.7254C103.983 77.6376 103.077 80.547 102.697 82.7708C102.69 82.8033 102.691 82.8371 102.699 82.8692C102.708 82.9013 102.724 82.9309 102.747 82.9554C102.769 82.9798 102.797 82.9985 102.829 83.0098C102.86 83.0211 102.894 83.0246 102.927 83.0201C104.986 83.6761 107.702 85.2144 108.371 87.3956C108.376 87.4073 108.384 87.4171 108.395 87.4232C108.406 87.4293 108.418 87.4313 108.431 87.429C108.443 87.4266 108.454 87.42 108.462 87.4103C108.469 87.4006 108.473 87.3884 108.473 87.376C108.073 84.9356 105.521 83.2104 103.225 82.6331C103.635 80.3568 104.416 77.3851 102.369 75.709C102.372 75.6992 102.356 75.7123 102.369 75.7254Z" fill="#263238"/>
<path d="M114.656 93.9067L97.3207 98.8267C97.3207 98.8267 93.8636 110.189 96.0612 113.039C98.413 116.086 109.326 111.363 111.497 104.724L114.656 93.9067Z" fill="#4650DA"/>
<path d="M108.283 96.642C108.283 96.6998 108.266 96.7562 108.234 96.8042C108.202 96.8522 108.156 96.8896 108.103 96.9117C108.049 96.9338 107.991 96.9396 107.934 96.9284C107.877 96.9171 107.825 96.8893 107.784 96.8485C107.744 96.8076 107.716 96.7556 107.705 96.699C107.693 96.6424 107.699 96.5837 107.721 96.5303C107.743 96.477 107.781 96.4314 107.829 96.3993C107.877 96.3672 107.933 96.3501 107.991 96.3501C108.068 96.3501 108.143 96.3809 108.197 96.4356C108.252 96.4904 108.283 96.5646 108.283 96.642ZM112.714 96.3501C112.656 96.3501 112.598 96.3675 112.55 96.4001C112.501 96.4327 112.463 96.479 112.441 96.5331C112.419 96.5872 112.413 96.6468 112.425 96.7041C112.436 96.7615 112.465 96.8141 112.507 96.8552C112.548 96.8964 112.601 96.9242 112.659 96.9352C112.716 96.9463 112.775 96.9399 112.829 96.9171C112.883 96.8942 112.929 96.8559 112.961 96.8069C112.993 96.7579 113.01 96.7006 113.009 96.642C113.009 96.6034 113.002 96.5652 112.987 96.5296C112.972 96.4939 112.95 96.4616 112.923 96.4344C112.895 96.4073 112.863 96.3859 112.827 96.3714C112.791 96.3569 112.753 96.3497 112.714 96.3501ZM98.5412 102.664C98.4825 102.663 98.425 102.68 98.376 102.712C98.3269 102.745 98.2886 102.791 98.2658 102.845C98.2431 102.899 98.237 102.959 98.2482 103.016C98.2595 103.074 98.2877 103.127 98.3292 103.168C98.3707 103.21 98.4236 103.238 98.4811 103.249C98.5387 103.26 98.5983 103.254 98.6524 103.231C98.7065 103.209 98.7525 103.17 98.7847 103.121C98.8169 103.072 98.8338 103.015 98.8331 102.956C98.8331 102.879 98.8024 102.804 98.7476 102.75C98.6929 102.695 98.6186 102.664 98.5412 102.664ZM103.268 102.664C103.209 102.663 103.151 102.68 103.102 102.712C103.053 102.745 103.015 102.791 102.992 102.845C102.97 102.899 102.963 102.959 102.975 103.016C102.986 103.074 103.014 103.127 103.056 103.168C103.097 103.21 103.15 103.238 103.208 103.249C103.265 103.26 103.325 103.254 103.379 103.231C103.433 103.209 103.479 103.17 103.511 103.121C103.543 103.072 103.56 103.015 103.56 102.956C103.56 102.879 103.529 102.804 103.474 102.75C103.419 102.695 103.345 102.664 103.268 102.664ZM107.991 102.664C107.932 102.663 107.875 102.68 107.826 102.712C107.777 102.745 107.738 102.791 107.716 102.845C107.693 102.899 107.687 102.959 107.698 103.016C107.709 103.074 107.737 103.127 107.779 103.168C107.82 103.21 107.873 103.238 107.931 103.249C107.988 103.26 108.048 103.254 108.102 103.231C108.156 103.209 108.202 103.17 108.234 103.121C108.267 103.072 108.283 103.015 108.283 102.956C108.283 102.879 108.252 102.804 108.197 102.75C108.143 102.695 108.068 102.664 107.991 102.664ZM100.903 99.6367C100.844 99.6367 100.787 99.6541 100.738 99.6867C100.69 99.7192 100.652 99.7655 100.63 99.8197C100.608 99.8738 100.602 99.9333 100.614 99.9907C100.625 100.048 100.654 100.101 100.695 100.142C100.737 100.183 100.79 100.211 100.847 100.222C100.905 100.233 100.964 100.227 101.018 100.204C101.072 100.181 101.118 100.142 101.15 100.093C101.182 100.045 101.199 99.9871 101.198 99.9286C101.196 99.8517 101.164 99.7787 101.109 99.7252C101.054 99.6718 100.98 99.6424 100.903 99.6432V99.6367ZM105.629 99.6367C105.571 99.636 105.513 99.6529 105.464 99.6851C105.415 99.7172 105.377 99.7633 105.354 99.8174C105.331 99.8715 105.325 99.9311 105.336 99.9886C105.348 100.046 105.376 100.099 105.417 100.141C105.459 100.182 105.512 100.21 105.569 100.222C105.627 100.233 105.686 100.227 105.74 100.204C105.795 100.181 105.841 100.143 105.873 100.094C105.905 100.045 105.922 99.9873 105.921 99.9286C105.92 99.8897 105.912 99.8513 105.896 99.8158C105.88 99.7803 105.857 99.7483 105.829 99.7217C105.8 99.6951 105.767 99.6745 105.73 99.661C105.694 99.6475 105.655 99.6415 105.616 99.6432L105.629 99.6367ZM110.352 99.6367C110.294 99.6367 110.237 99.6541 110.188 99.6867C110.14 99.7192 110.102 99.7655 110.079 99.8197C110.057 99.8738 110.052 99.9333 110.063 99.9907C110.075 100.048 110.103 100.101 110.145 100.142C110.187 100.183 110.239 100.211 110.297 100.222C110.354 100.233 110.414 100.227 110.468 100.204C110.522 100.181 110.567 100.142 110.6 100.093C110.632 100.045 110.648 99.9871 110.648 99.9286C110.646 99.8517 110.614 99.7787 110.559 99.7252C110.503 99.6718 110.429 99.6424 110.352 99.6432V99.6367ZM98.5445 108.985C98.4867 108.985 98.4303 109.002 98.3823 109.034C98.3343 109.066 98.2969 109.112 98.2748 109.165C98.2527 109.218 98.2469 109.277 98.2582 109.334C98.2694 109.39 98.2972 109.442 98.3381 109.483C98.3789 109.524 98.4309 109.552 98.4875 109.563C98.5441 109.574 98.6028 109.568 98.6562 109.546C98.7095 109.524 98.7551 109.487 98.7872 109.439C98.8193 109.391 98.8364 109.334 98.8364 109.277C98.8347 109.2 98.8027 109.127 98.7474 109.073C98.6922 109.02 98.6181 108.99 98.5412 108.991L98.5445 108.985ZM103.271 108.985C103.213 108.985 103.157 109.002 103.109 109.034C103.061 109.066 103.023 109.112 103.001 109.165C102.979 109.218 102.973 109.277 102.985 109.334C102.996 109.39 103.024 109.442 103.065 109.483C103.105 109.524 103.157 109.552 103.214 109.563C103.271 109.574 103.329 109.568 103.383 109.546C103.436 109.524 103.482 109.487 103.514 109.439C103.546 109.391 103.563 109.334 103.563 109.277C103.561 109.2 103.529 109.127 103.474 109.073C103.419 109.02 103.345 108.99 103.268 108.991L103.271 108.985ZM107.994 108.985C107.936 108.985 107.88 109.002 107.832 109.034C107.784 109.066 107.747 109.112 107.724 109.165C107.702 109.218 107.697 109.277 107.708 109.334C107.719 109.39 107.747 109.442 107.788 109.483C107.829 109.524 107.881 109.552 107.937 109.563C107.994 109.574 108.053 109.568 108.106 109.546C108.159 109.524 108.205 109.487 108.237 109.439C108.269 109.391 108.286 109.334 108.286 109.277C108.284 109.2 108.252 109.127 108.197 109.073C108.142 109.02 108.068 108.99 107.991 108.991L107.994 108.985ZM96.1862 105.957C96.1275 105.957 96.07 105.973 96.0209 106.006C95.9719 106.038 95.9335 106.084 95.9108 106.138C95.888 106.192 95.8819 106.252 95.8932 106.309C95.9045 106.367 95.9327 106.42 95.9742 106.461C96.0156 106.503 96.0685 106.531 96.1261 106.542C96.1837 106.553 96.2433 106.547 96.2974 106.525C96.3514 106.502 96.3975 106.463 96.4297 106.414C96.4619 106.365 96.4787 106.308 96.4781 106.249C96.4772 106.211 96.4688 106.173 96.4534 106.138C96.4379 106.103 96.4157 106.071 96.388 106.045C96.3602 106.018 96.3276 105.997 96.2918 105.983C96.2561 105.97 96.2179 105.963 96.1796 105.964L96.1862 105.957ZM100.909 105.957C100.851 105.957 100.794 105.975 100.745 106.007C100.696 106.04 100.659 106.086 100.636 106.14C100.614 106.194 100.608 106.254 100.62 106.311C100.632 106.369 100.66 106.421 100.702 106.462C100.743 106.503 100.796 106.531 100.854 106.542C100.911 106.553 100.971 106.547 101.025 106.524C101.078 106.501 101.124 106.463 101.156 106.414C101.188 106.365 101.205 106.308 101.205 106.249C101.204 106.211 101.195 106.172 101.18 106.137C101.164 106.102 101.141 106.07 101.113 106.043C101.085 106.017 101.052 105.996 101.016 105.983C100.98 105.969 100.941 105.962 100.903 105.964L100.909 105.957ZM105.636 105.957C105.577 105.957 105.52 105.973 105.471 106.006C105.422 106.038 105.383 106.084 105.36 106.138C105.338 106.192 105.332 106.252 105.343 106.309C105.354 106.367 105.382 106.42 105.424 106.461C105.465 106.503 105.518 106.531 105.576 106.542C105.633 106.553 105.693 106.547 105.747 106.525C105.801 106.502 105.847 106.463 105.879 106.414C105.912 106.365 105.928 106.308 105.928 106.249C105.927 106.21 105.918 106.171 105.902 106.135C105.886 106.099 105.862 106.066 105.833 106.04C105.804 106.013 105.77 105.993 105.732 105.98C105.695 105.966 105.656 105.961 105.616 105.964L105.636 105.957ZM110.359 105.957C110.301 105.957 110.243 105.975 110.195 106.007C110.146 106.04 110.108 106.086 110.086 106.14C110.064 106.194 110.058 106.254 110.07 106.311C110.081 106.369 110.11 106.421 110.151 106.462C110.193 106.503 110.246 106.531 110.303 106.542C110.361 106.553 110.42 106.547 110.474 106.524C110.528 106.501 110.574 106.463 110.606 106.414C110.638 106.365 110.655 106.308 110.654 106.249C110.653 106.211 110.645 106.172 110.629 106.137C110.614 106.102 110.591 106.07 110.563 106.043C110.535 106.017 110.502 105.996 110.466 105.983C110.43 105.969 110.391 105.962 110.352 105.964L110.359 105.957ZM96.1862 112.278C96.1275 112.277 96.07 112.294 96.0209 112.326C95.9719 112.358 95.9335 112.404 95.9108 112.459C95.888 112.513 95.8819 112.572 95.8932 112.63C95.9045 112.687 95.9327 112.74 95.9742 112.782C96.0156 112.823 96.0685 112.851 96.1261 112.863C96.1837 112.874 96.2433 112.868 96.2974 112.845C96.3514 112.822 96.3975 112.784 96.4297 112.735C96.4619 112.686 96.4787 112.628 96.4781 112.57C96.4772 112.531 96.4688 112.494 96.4534 112.458C96.4379 112.423 96.4157 112.392 96.388 112.365C96.3602 112.339 96.3276 112.318 96.2918 112.304C96.2561 112.29 96.2179 112.283 96.1796 112.284L96.1862 112.278ZM100.909 112.278C100.851 112.278 100.794 112.295 100.745 112.328C100.696 112.36 100.659 112.407 100.636 112.461C100.614 112.515 100.608 112.574 100.62 112.632C100.632 112.689 100.66 112.742 100.702 112.783C100.743 112.824 100.796 112.852 100.854 112.863C100.911 112.874 100.971 112.868 101.025 112.845C101.078 112.822 101.124 112.784 101.156 112.735C101.188 112.686 101.205 112.628 101.205 112.57C101.204 112.531 101.195 112.493 101.18 112.458C101.164 112.422 101.141 112.391 101.113 112.364C101.085 112.337 101.052 112.317 101.016 112.303C100.98 112.289 100.941 112.283 100.903 112.284L100.909 112.278Z" fill="#87C159"/>
<path d="M97.8886 102.766C99.8238 102.326 101.733 101.782 103.642 101.237C105.551 100.693 107.463 100.148 109.359 99.5547C110.428 99.2267 111.501 98.8987 112.56 98.5149C112.59 98.5149 112.58 98.4559 112.56 98.4624C110.628 98.8987 108.713 99.4464 106.807 99.9679C104.901 100.489 102.982 101.057 101.08 101.628C100.007 101.956 98.9382 102.284 97.8788 102.667C97.8164 102.687 97.8328 102.779 97.8886 102.766Z" fill="#263238"/>
<path d="M97.9375 98.6362C97.6686 98.6625 97.3996 98.7182 97.1339 98.7707C97.1136 98.7765 97.0952 98.7874 97.0803 98.8024C97.0654 98.8173 97.0545 98.8357 97.0486 98.856C96.7534 99.8662 96.5435 100.906 96.3336 101.936C96.1237 102.966 95.9433 103.97 95.776 104.993C95.6842 105.541 95.6054 106.095 95.5431 106.633C95.2085 107.302 95.0047 108.029 94.9429 108.775C94.9429 108.783 94.9463 108.792 94.9525 108.798C94.9586 108.804 94.967 108.808 94.9757 108.808C94.9844 108.808 94.9927 108.804 94.9989 108.798C95.005 108.792 95.0085 108.783 95.0085 108.775C95.0907 108.113 95.2617 107.465 95.5169 106.849C95.3512 108.2 95.3876 109.567 95.6251 110.907C95.2971 108.906 95.7891 106.82 96.1171 104.852C96.2811 103.868 96.4681 102.884 96.6616 101.9C96.8551 100.916 97.0814 99.9482 97.2618 98.9675C97.4914 98.879 97.7243 98.7937 97.9441 98.6887C97.9478 98.6852 97.9507 98.6808 97.9524 98.676C97.9541 98.6711 97.9547 98.6659 97.9541 98.6608C97.9535 98.6557 97.9516 98.6508 97.9487 98.6465C97.9459 98.6423 97.942 98.6387 97.9375 98.6362Z" fill="#263238"/>
<path d="M80.3601 81.7377C80.2059 82.2953 77.3786 85.8541 74.807 85.6376C73.9706 85.5654 74.151 80.9767 74.151 80.9767L74.0887 80.6487L73.2031 75.8632L78.9071 72.4881L79.7303 72.042C79.7303 72.042 79.8878 73.354 80.0583 75.0235C80.0583 75.099 80.0747 75.1744 80.0813 75.2564C80.0878 75.3384 80.1075 75.4401 80.1141 75.5254C80.1469 75.7714 80.1731 76.0239 80.1994 76.2765C80.219 76.4667 80.2354 76.6537 80.2486 76.8538C80.2617 77.0538 80.2814 77.2539 80.2978 77.454C80.4153 78.8788 80.4361 80.31 80.3601 81.7377Z" fill="#F7A9A0"/>
<path d="M80.0651 75.0137C79.5354 76.3287 78.7259 77.5126 77.6928 78.4834C76.6597 79.4542 75.4277 80.1886 74.0824 80.6356L73.1968 75.8501L78.9073 72.4881L79.7305 72.042C79.7305 72.042 79.888 73.3606 80.0651 75.0137Z" fill="#263238"/>
<path d="M67.1778 68.1062C66.2955 76.6047 71.2876 78.0938 73.1212 78.2742C74.7841 78.4448 80.4717 78.8154 82.2265 70.4514C83.9813 62.0874 80.3077 58.9944 76.5225 58.4007C72.7374 57.807 68.0601 59.6077 67.1778 68.1062Z" fill="#F7A9A0"/>
<path d="M70.0412 66.1314C70.2369 66.1184 70.4317 66.0954 70.625 66.0625C70.8345 66.0668 71.0396 66.0023 71.2089 65.8788C71.2555 65.83 71.2844 65.7669 71.2909 65.6998C71.2975 65.6326 71.2813 65.5651 71.245 65.5082C71.1556 65.4086 71.0415 65.3343 70.9142 65.2928C70.787 65.2513 70.651 65.2442 70.5201 65.272C70.245 65.2871 69.9855 65.404 69.7919 65.6C69.7541 65.6479 69.7304 65.7052 69.7234 65.7658C69.7164 65.8263 69.7264 65.8876 69.7522 65.9428C69.7781 65.998 69.8189 66.0449 69.8699 66.0782C69.921 66.1115 69.9803 66.1299 70.0412 66.1314Z" fill="#263238"/>
<path d="M76.1353 66.0855C75.9431 66.0419 75.7536 65.9872 75.5678 65.9215C75.3605 65.8913 75.169 65.7933 75.0233 65.6427C74.9865 65.5872 74.9692 65.521 74.9739 65.4546C74.9787 65.3881 75.0053 65.3251 75.0496 65.2754C75.1531 65.1898 75.2777 65.1335 75.4103 65.1121C75.5429 65.0908 75.6788 65.1052 75.804 65.154C76.0701 65.215 76.3039 65.3729 76.46 65.5968C76.4903 65.6497 76.5053 65.7099 76.5033 65.7708C76.5013 65.8317 76.4824 65.8908 76.4487 65.9415C76.4149 65.9923 76.3678 66.0326 76.3124 66.058C76.2571 66.0835 76.1957 66.093 76.1353 66.0855Z" fill="#263238"/>
<path d="M74.6166 68.6371C74.6166 68.6175 74.6593 68.6699 74.656 68.6929C74.5806 69.2702 74.5937 69.9459 75.0988 70.1886C75.0988 70.1886 75.0988 70.2247 75.0988 70.2214C74.4559 70.0672 74.4559 69.1718 74.6166 68.6371Z" fill="#263238"/>
<path d="M75.1939 68.0831C76.1319 68.1061 76.0204 69.979 75.1512 69.9626C74.282 69.9462 74.4067 68.0667 75.1939 68.0831Z" fill="#263238"/>
<path d="M75.5547 68.2044C75.7122 68.3192 75.8631 68.516 76.0566 68.5488C76.2501 68.5816 76.4699 68.3979 76.6306 68.2208C76.647 68.2208 76.6601 68.2207 76.6601 68.2437C76.6437 68.6045 76.4863 68.9653 76.0959 68.9948C75.7056 69.0244 75.5088 68.6931 75.4399 68.3388C75.4399 68.2536 75.4924 68.1584 75.5547 68.2044Z" fill="#263238"/>
<path d="M71.0779 68.224C71.0779 68.2011 71.0287 68.247 71.0287 68.27C71.009 68.8538 70.8876 69.5164 70.3497 69.6738C70.33 69.6738 70.33 69.7066 70.3497 69.7066C70.9992 69.6443 71.15 68.7652 71.0779 68.224Z" fill="#263238"/>
<path d="M70.599 67.568C69.6708 67.4335 69.4707 69.3031 70.33 69.4277C71.1894 69.5524 71.3796 67.6828 70.599 67.568Z" fill="#263238"/>
<path d="M70.192 67.65C70.0313 67.732 69.864 67.896 69.6902 67.8894C69.5163 67.8829 69.3622 67.6631 69.2441 67.4565C69.2441 67.4335 69.2178 67.4565 69.2146 67.4729C69.1654 67.8271 69.2441 68.2141 69.5786 68.3191C69.9132 68.4241 70.1494 68.1321 70.2707 67.7877C70.3002 67.7221 70.2609 67.6172 70.192 67.65Z" fill="#263238"/>
<path d="M73.6985 73.1636C73.5575 73.2981 73.4165 73.4916 73.2033 73.4916C72.9868 73.4863 72.774 73.4337 72.5801 73.3374C72.5761 73.3367 72.5721 73.3369 72.5683 73.3382C72.5646 73.3395 72.5612 73.3417 72.5585 73.3447C72.5559 73.3477 72.5541 73.3513 72.5532 73.3552C72.5524 73.3591 72.5526 73.3631 72.5538 73.3669C72.6347 73.4834 72.7459 73.5756 72.8754 73.6334C73.005 73.6912 73.1478 73.7125 73.2885 73.6949C73.408 73.6662 73.5161 73.6025 73.5991 73.5119C73.6821 73.4213 73.7361 73.308 73.7543 73.1865C73.7641 73.1439 73.7182 73.1439 73.6985 73.1636Z" fill="#263238"/>
<path d="M71.4186 70.8941C71.4186 70.8941 71.2382 71.7535 71.2086 72.1635C71.2086 72.1996 71.3038 72.2258 71.4415 72.2455C71.4415 72.2455 71.4415 72.2455 71.4579 72.2455C71.8044 72.3347 72.1687 72.3265 72.5108 72.2217C72.8529 72.117 73.1593 71.9197 73.3964 71.6518C73.4292 71.6157 73.38 71.5698 73.3406 71.5928C72.7939 71.9115 72.1591 72.046 71.5301 71.9765C71.5071 71.8617 71.8876 70.5169 71.8253 70.5071C71.5053 70.5118 71.1874 70.5604 70.8806 70.6514C71.2086 68.854 71.8154 67.1189 72.1106 65.3247C72.115 65.3112 72.1138 65.2966 72.1073 65.2839C72.1009 65.2713 72.0897 65.2618 72.0762 65.2575C72.0627 65.2531 72.0481 65.2543 72.0354 65.2608C72.0228 65.2672 72.0133 65.2784 72.009 65.2919C71.2382 67.0598 70.8216 69.1229 70.4378 70.9729C70.3854 71.2025 71.2513 70.9532 71.4186 70.8941Z" fill="#263238"/>
<path d="M71.583 72.0945C71.7853 72.4351 72.0723 72.7176 72.4161 72.9145C72.6065 73.0177 72.825 73.0568 73.0393 73.026C73.5084 72.9604 73.5674 72.5471 73.5248 72.1797C73.5014 71.9858 73.4552 71.7953 73.387 71.6123C72.8525 71.9614 72.2204 72.1304 71.583 72.0945Z" fill="#263238"/>
<path d="M72.416 72.9143C72.6064 73.0175 72.8249 73.0566 73.0392 73.0259C73.5083 72.9603 73.5673 72.547 73.5247 72.1796C73.2844 72.1607 73.0446 72.2227 72.8437 72.3559C72.6428 72.489 72.4922 72.6856 72.416 72.9143Z" fill="#FF9CBD"/>
<path d="M81.872 69.9593C79.904 69.8183 80.1828 66.7318 80.1828 66.7318C80.1828 66.7318 77.9786 66.3481 78.1131 62.7532C78.1131 62.7532 76.8667 64.8294 73.8229 65.0197C73.1669 65.0623 75.4629 63.5863 75.4629 63.5863C75.4629 63.5863 72.3862 65.6002 67.7122 64.3309C67.3842 64.2423 68.8405 59.3846 72.7044 57.9808C76.5682 56.5769 79.8449 57.8266 81.954 60.3653C81.954 60.3653 84.578 61.8479 84.6731 64.4588C84.7682 67.0697 82.6329 70.0151 81.872 69.9593Z" fill="#263238"/>
<path d="M83.3844 68.6472C84.0361 67.5733 84.4141 66.3557 84.485 65.1014C84.5559 63.8472 84.3177 62.5947 83.7911 61.4542C81.9937 57.446 75.5452 55.8552 71.291 58.6924C71.291 58.6924 78.6054 57.3804 81.0785 60.6801C83.5517 63.9798 83.3844 68.6472 83.3844 68.6472Z" fill="#B7CFFF"/>
<path d="M80.7636 70.7823C80.7636 70.7823 82.6726 68.1583 83.8698 68.8143C85.067 69.4703 83.6041 73.3439 82.174 73.8458C81.9954 73.9233 81.8029 73.9639 81.6081 73.9651C81.4133 73.9663 81.2203 73.928 81.0408 73.8526C80.8612 73.7772 80.6987 73.6663 80.5631 73.5264C80.4276 73.3866 80.3217 73.2207 80.252 73.0389L80.7636 70.7823Z" fill="#F7A9A0"/>
<path d="M83.4236 69.9233C83.4465 69.9233 83.4498 69.9529 83.4236 69.9627C82.4199 70.3465 81.882 71.2747 81.4982 72.2128C81.8 71.852 82.2067 71.6552 82.6954 72.016C82.7216 72.0357 82.6954 72.075 82.6659 72.0685C82.4915 72.0093 82.3031 72.0059 82.1267 72.0588C81.9503 72.1117 81.7949 72.2183 81.6819 72.3637C81.4956 72.6065 81.3351 72.8682 81.203 73.1443C81.1538 73.2329 80.9931 73.1837 81.0292 73.082V73.059C81.039 71.7897 82.0558 70.0283 83.4236 69.9233Z" fill="#263238"/>
</svg>
